<?xml version="1.0" encoding="utf-8"?>
<!-- Generator: Adobe Illustrator 19.0.0, SVG Export Plug-In . SVG Version: 6.00 Build 0)  -->
<svg version="1.1" id="Capa_1" xmlns="http://www.w3.org/2000/svg" xmlns:xlink="http://www.w3.org/1999/xlink" x="0px" y="0px"
	 viewBox="-466 467.3 66.5 67.7" style="enable-background:new -466 467.3 66.5 67.7;" xml:space="preserve">
<style type="text/css">
	.st0{fill:#FF6679;}
	.st1{fill:#E0E6EB;}
	.st2{fill:#2AA7B4;}
</style>
<g>
	<path class="st0" d="M-449.3,510.1c1.9,0,3.5-1.6,3.5-3.5s-1.6-3.5-3.5-3.5s-3.5,1.6-3.5,3.5S-451.1,510.1-449.3,510.1z
		 M-449.3,505.1c0.8,0,1.5,0.7,1.5,1.5s-0.7,1.5-1.5,1.5s-1.5-0.7-1.5-1.5C-450.8,505.8-450,505.1-449.3,505.1z"/>
	<path class="st1" d="M-407.8,532.1v-4c0-0.6-0.4-1-1-1s-1-0.4-1-1s-0.4-1-1-1h-44c-0.6,0-1,0.4-1,1s-0.4,1-1,1s-1,0.4-1,1v4
		c0,0.6,0.4,1,1,1s1-0.4,1-1V529c0.8-0.3,1.5-1,1.8-1.8h42.4c0.3,0.8,1,1.5,1.8,1.8v3.2c0,0.6,0.4,1,1,1
		C-408.1,533.1-407.8,532.8-407.8,532.1z"/>
	<path class="st1" d="M-463.8,522.1h1v10c0,0.6,0.4,1,1,1s1-0.4,1-1v-10h56v10c0,0.6,0.4,1,1,1s1-0.4,1-1v-10h1c0.6,0,1-0.4,1-1v-4
		c0-0.6-0.4-1-1-1h-1v-6c0-3.9-3.1-7-7-7l0,0h-3v-1.6c3.6-2.1,6-5.9,6-10.4l0,0v-9c0-3-2.2-5.4-5-5.9v-3.1c0-0.6-0.4-1-1-1h-8l0,0
		c-5.5,0-10,4.5-10,10v9c0,4.4,2.4,8.3,6,10.4v1.6h-3l0,0c-3.9,0-7,3.1-7,7v2h-1v-14c0-1.7-1.3-3-3-3h-21c-1.7,0-3,1.3-3,3v17
		c0,0.4,0.1,0.7,0.2,1h-1.2c-0.6,0-1,0.4-1,1v4C-464.8,521.8-464.4,522.1-463.8,522.1z M-420.8,474.1L-420.8,474.1h7v3
		c0,0.6,0.4,1,1,1c2.2,0,4,1.8,4,4v2.6l-1.3-1.3l0,0c-0.1,0-0.1-0.1-0.2-0.1s-0.1-0.1-0.2-0.1s-0.1,0-0.2,0s-0.1,0-0.2,0
		s-0.1,0-0.2,0s-0.1,0-0.2,0.1c0,0,0,0-0.1,0c0,0-3.5,1.9-7.5,1.9s-7.5-1.9-7.5-1.9s0,0-0.1,0s-0.1,0-0.2-0.1c-0.1,0-0.1,0-0.2,0
		s-0.1,0-0.2,0s-0.1,0-0.2,0s-0.1,0.1-0.2,0.1s-0.1,0.1-0.2,0.1l0,0l-1.3,1.3v-2.6C-428.8,477.8-425.1,474.1-420.8,474.1z
		 M-428.8,491.1v-3.6l2.2-2.2c1.3,0.6,4.4,1.8,7.8,1.8s6.5-1.2,7.8-1.8l2.2,2.2v3.6c0,5.5-4.5,10-10,10S-428.8,496.6-428.8,491.1z
		 M-418.8,503.1c1.4,0,2.7-0.3,4-0.7v1.3l-1.3,1.3l-2.4-0.8h-0.1c-0.1,0-0.1,0-0.2,0s-0.1,0-0.2,0h-0.1l-2.4,0.8l-1.3-1.3v-1.3
		C-421.5,502.8-420.1,503.1-418.8,503.1z M-432.8,510.1c0-2.8,2.2-5,5-5h3.6l1.7,1.7c0,0,0,0,0.1,0c0.1,0.1,0.1,0.1,0.2,0.1h0.1
		c0.1,0,0.2,0.1,0.3,0.1c0.1,0,0.2,0,0.3-0.1l2.7-0.9l2.7,0.9c0.1,0,0.2,0.1,0.3,0.1c0.1,0,0.2,0,0.3-0.1h0.1c0.1,0,0.1-0.1,0.2-0.1
		c0,0,0,0,0.1,0l1.7-1.7h3.6c2.8,0,5,2.2,5,5v6h-21.2c0.1-0.3,0.2-0.6,0.2-1v-2c0-0.6-0.4-1-1-1h-6L-432.8,510.1L-432.8,510.1z
		 M-427.8,514.1v1c0,0.5-0.4,1-1,1h-7.2c0.1-0.3,0.2-0.6,0.2-1l0,0v-1H-427.8z M-459.8,497.1h21c0.6,0,1,0.4,1,1v15l0,0l0,0v2l0,0
		c0,0.5-0.4,1-1,1h-21c-0.5,0-1-0.4-1-1v-17C-460.8,497.6-460.4,497.1-459.8,497.1z M-462.8,518.1h2l0,0h21l0,0h11l0,0h24.9l0,0l0,0
		h1v2h-60v-2H-462.8z"/>
	<path class="st0" d="M-418.8,515.1c0.6,0,1-0.4,1-1s-0.4-1-1-1l0,0c-0.6,0-1,0.4-1,1C-419.8,514.8-419.3,515.1-418.8,515.1z"/>
	<path class="st0" d="M-418.8,511.1c0.6,0,1-0.4,1-1s-0.4-1-1-1l0,0c-0.6,0-1,0.4-1,1S-419.3,511.1-418.8,511.1z"/>
	<path class="st0" d="M-450.3,492l0.8,0.8c0.2,0.2,0.4,0.3,0.7,0.3c0.3,0,0.5-0.1,0.7-0.3l0.9-0.9c5.5-1,9.4-5.7,9.4-11.3
		c0-6.3-5.2-11.5-11.5-11.5s-11.5,5.2-11.5,11.5C-460.8,486.6-456.1,491.6-450.3,492z M-449.3,471.1c5.2,0,9.5,4.3,9.5,9.5
		c0,4.7-3.4,8.6-8,9.4c-0.2,0-0.4,0.1-0.6,0.3l-0.4,0.4l-0.3-0.3c-0.2-0.2-0.4-0.3-0.7-0.3c-5.1-0.3-9-4.4-9-9.5
		C-458.8,475.4-454.5,471.1-449.3,471.1z"/>
	<path class="st2" d="M-446,483.8c0.2,0.2,0.5,0.3,0.7,0.3c0.3,0,0.5-0.1,0.7-0.3l2.5-2.5l0,0c0.2-0.2,0.3-0.5,0.3-0.7
		c0-0.3-0.1-0.5-0.3-0.7l0,0l-2.5-2.5c-0.4-0.4-1-0.4-1.4,0s-0.4,1,0,1.4l1.8,1.8l-1.8,1.8C-446.4,482.8-446.4,483.4-446,483.8z"/>
	<path class="st2" d="M-454,483.8c0.2,0.2,0.5,0.3,0.7,0.3c0.3,0,0.5-0.1,0.7-0.3c0.4-0.4,0.4-1,0-1.4l-1.8-1.8l1.8-1.8
		c0.4-0.4,0.4-1,0-1.4s-1-0.4-1.4,0l-2.5,2.5l0,0c-0.2,0.2-0.3,0.5-0.3,0.7c0,0.3,0.1,0.5,0.3,0.7l0,0L-454,483.8z"/>
	<path class="st0" d="M-451,486c0.1,0,0.2,0.1,0.3,0.1c0.4,0,0.8-0.3,0.9-0.7l3-9c0.2-0.5-0.1-1.1-0.6-1.3c-0.5-0.2-1.1,0.1-1.3,0.6
		l-3,9C-451.9,485.3-451.5,485.9-451,486z"/>
</g>
</svg>
