<?xml version="1.0" encoding="utf-8"?>
<!-- Generator: Adobe Illustrator 19.0.0, SVG Export Plug-In . SVG Version: 6.00 Build 0)  -->
<svg version="1.1" id="Capa_1" xmlns="http://www.w3.org/2000/svg" xmlns:xlink="http://www.w3.org/1999/xlink" x="0px" y="0px"
	 viewBox="0 0 486.1 394" style="enable-background:new 0 0 486.1 394;" xml:space="preserve">
<style type="text/css">
	.st0{fill:#96CFC6;}
	.st1{fill:#DAE3CE;}
	.st2{fill:#FFB399;}
	.st3{fill:#4F4E5D;}
	.st4{fill:#2AA7B4;}
	.st5{fill:#2A2484;}
	.st6{fill:#FF6679;}
	.st7{fill:#E0E6EB;}
</style>
<g id="XMLID_8_">
	<g id="XMLID_3_">
		<g id="XMLID_1_">
			<path id="XMLID_33_" class="st0" d="M-944.3-696.2c-3.8-3.1-6.3-7.4-7.4-12.1c-2.6-11.3-5.5-37.4,12.3-64.6
				c23.7-36.2,66.1-86.7,114.8-46.8s15,97.9-5.6,107.9C-849.3-702.6-916.7-674-944.3-696.2z"/>
		</g>
		<g id="XMLID_4_">
			<path id="XMLID_12_" class="st1" d="M-1002.4-610.1c0,0-23.7,60.5,68,87.3c91.7,26.8,176.5-50.5,196.5-78
				c20-27.4,84.8-83.6,110.4-155.3c16.8-52.4-15.6-81.7-40.5-85.5c-25-3.7-63.6,44.9-82.3,77.4s-65.5,77.4-143.5,88.6
				C-971.9-664.4-997.4-638.2-1002.4-610.1z"/>
		</g>
	</g>
	<g id="XMLID_5_">
		<path id="XMLID_30_" class="st2" d="M-960.4-675.8l-65.5,38.6v-32.7l22.9-13.4l-22.9-14.7v-31.2l65.5,39.8V-675.8z"/>
	</g>
	<g id="XMLID_7_">
		<path id="XMLID_13_" class="st3" d="M-948.1-611.1c-4.3,0-8.4-0.7-12.4-2.2c-3.9-1.4-7.5-3.5-10.7-6.2l12-19.9
			c1.9,2.1,4.3,3.1,7.3,3.1c4.1,0,6.2-2.2,6.2-6.6v-81.7h29.3v79.4c0,5-0.8,9.7-2.3,13.8c-1.5,4.2-3.7,7.8-6.6,10.8
			c-2.8,3-6.2,5.4-10.1,7C-939.2-611.9-943.4-611.1-948.1-611.1z M-945.6-731.3V-756h29.3v24.7H-945.6z"/>
		<path id="XMLID_17_" class="st3" d="M-901.1-643.3v-28.4h23.8v28.4H-901.1z"/>
		<path id="XMLID_21_" class="st3" d="M-810.5-641.8c-12.3,0-21-4.7-26.2-14.2v12.7h-25.5V-756h29.3v43.5c2.4-4.4,5.7-7.8,10-10.1
			c4.3-2.3,9.4-3.5,15.3-3.5c4.9,0,9.5,1.1,13.8,3.2c4.3,2.2,8,5.1,11,8.9c3.1,3.8,5.5,8.2,7.3,13.4c1.7,5.2,2.6,10.8,2.6,16.9
			c0,6.1-1,11.7-2.9,16.8c-1.9,5.1-4.5,9.5-7.9,13.2c-3.3,3.7-7.3,6.6-12,8.7C-800.2-642.8-805.2-641.8-810.5-641.8z M-819-666.5
			c4.8,0,8.7-1.5,11.7-4.6c2.9-3.1,4.4-7.2,4.4-12.4c0-2.5-0.4-4.8-1.2-6.9c-0.8-2.2-1.8-4.1-3.1-5.7c-1.3-1.6-2.8-2.9-4.6-3.9
			c-1.8-0.9-3.8-1.4-5.9-1.4c-3.1,0-6,1.1-8.8,3.3c-2.8,2.2-4.9,5.1-6.3,8.7v14.5C-829.1-669.3-824.5-666.5-819-666.5z"/>
		<path id="XMLID_24_" class="st3" d="M-765.9-697.1c0-5.2,0.6-10.5,1.9-15.8c1.2-5.3,2.9-10.7,5.1-16.1s4.7-10.9,7.6-16.5
			c2.9-5.6,6.1-11.3,9.5-17.1l22.4,9c-1.2,2-2.9,5-5,9c-2.1,4.1-4.2,8.7-6.3,14c-2.1,5.2-3.9,10.8-5.5,16.8
			c-1.5,5.9-2.3,11.7-2.3,17.2c0,8.4,1.8,17,5.3,25.6c3.6,8.6,7.9,17.8,13,27.5l-21.3,10.3c-3.2-4.7-6.3-9.7-9.2-14.9
			c-2.9-5.2-5.5-10.5-7.8-15.9c-2.3-5.4-4.1-10.9-5.4-16.4C-765.2-685.9-765.9-691.5-765.9-697.1z"/>
		<path id="XMLID_27_" class="st3" d="M-668.1-697.1c0,5.6-0.7,11.1-2,16.7c-1.3,5.6-3.1,11-5.4,16.4c-2.3,5.4-4.9,10.7-7.8,15.9
			c-2.9,5.2-6,10.2-9.2,14.9l-21.3-10.3c5.1-9.7,9.5-18.8,13-27.5c3.6-8.6,5.3-17.2,5.3-25.6c0-5.6-0.8-11.3-2.3-17.2
			c-1.5-5.9-3.4-11.5-5.5-16.8c-2.1-5.2-4.2-9.9-6.3-14c-2.1-4.1-3.8-7.1-5-9l22.4-9c3.4,5.8,6.6,11.5,9.5,17.1
			c2.9,5.6,5.5,11.1,7.6,16.5c2.2,5.4,3.9,10.8,5.1,16.1C-668.8-707.6-668.1-702.3-668.1-697.1z"/>
	</g>
</g>
<g id="XMLID_187_">
	<g id="XMLID_204_">
		<g id="XMLID_207_">
			<g id="XMLID_496_">
				<path id="XMLID_497_" class="st4" d="M103.7-696.2c-3.8-3.1-6.3-7.4-7.4-12.1c-2.6-11.3-5.5-37.4,12.3-64.6
					c23.7-36.2,66.1-86.7,114.8-46.8s15,97.9-5.6,107.9C198.7-702.6,131.3-674,103.7-696.2z"/>
			</g>
		</g>
		<g id="XMLID_205_">
			<g id="XMLID_797_">
				<path id="XMLID_798_" class="st5" d="M45.6-610.1c0,0-23.7,60.5,68,87.3c91.7,26.8,176.5-50.5,196.5-78
					c20-27.4,84.8-83.6,110.4-155.3c16.8-52.4-15.6-81.7-40.5-85.5s-63.6,44.9-82.3,77.4s-65.5,77.4-143.5,88.6
					C76.1-664.4,50.6-638.2,45.6-610.1z"/>
			</g>
		</g>
	</g>
	<g id="XMLID_201_">
		<g id="XMLID_594_">
			<path id="XMLID_595_" class="st6" d="M87.6-675.8l-65.5,38.6v-32.7l22.9-13.4L22.1-698v-31.2l65.5,39.8V-675.8z"/>
		</g>
	</g>
	<g id="XMLID_188_">
		<g id="XMLID_668_">
			<path id="XMLID_678_" class="st7" d="M99.9-611.1c-4.3,0-8.4-0.7-12.4-2.2c-3.9-1.4-7.5-3.5-10.7-6.2l12-19.9
				c1.9,2.1,4.3,3.1,7.3,3.1c4.1,0,6.2-2.2,6.2-6.6v-81.7h29.3v79.4c0,5-0.8,9.7-2.3,13.8c-1.5,4.2-3.7,7.8-6.6,10.8
				c-2.8,3-6.2,5.4-10.1,7C108.8-611.9,104.6-611.1,99.9-611.1z M102.4-731.3V-756h29.3v24.7H102.4z"/>
			<path id="XMLID_676_" class="st7" d="M146.9-643.3v-28.4h23.8v28.4H146.9z"/>
			<path id="XMLID_673_" class="st7" d="M237.5-641.8c-12.3,0-21-4.7-26.2-14.2v12.7h-25.5V-756h29.3v43.5c2.4-4.4,5.7-7.8,10-10.1
				c4.3-2.3,9.4-3.5,15.3-3.5c4.9,0,9.5,1.1,13.8,3.2c4.3,2.2,8,5.1,11,8.9c3.1,3.8,5.5,8.2,7.3,13.4c1.7,5.2,2.6,10.8,2.6,16.9
				c0,6.1-1,11.7-2.9,16.8c-1.9,5.1-4.5,9.5-7.9,13.2c-3.3,3.7-7.3,6.6-12,8.7C247.8-642.8,242.8-641.8,237.5-641.8z M229-666.5
				c4.8,0,8.7-1.5,11.7-4.6c2.9-3.1,4.4-7.2,4.4-12.4c0-2.5-0.4-4.8-1.2-6.9s-1.8-4.1-3.1-5.7c-1.3-1.6-2.8-2.9-4.6-3.9
				c-1.8-0.9-3.8-1.4-5.9-1.4c-3.1,0-6,1.1-8.8,3.3c-2.8,2.2-4.9,5.1-6.3,8.7v14.5C218.9-669.3,223.5-666.5,229-666.5z"/>
			<path id="XMLID_671_" class="st7" d="M282.1-697.1c0-5.2,0.6-10.5,1.9-15.8c1.2-5.3,2.9-10.7,5.1-16.1s4.7-10.9,7.6-16.5
				c2.9-5.6,6.1-11.3,9.5-17.1l22.4,9c-1.2,2-2.9,5-5,9c-2.1,4.1-4.2,8.7-6.3,14c-2.1,5.2-3.9,10.8-5.5,16.8
				c-1.5,5.9-2.3,11.7-2.3,17.2c0,8.4,1.8,17,5.3,25.6c3.6,8.6,7.9,17.8,13,27.5l-21.3,10.3c-3.2-4.7-6.3-9.7-9.2-14.9
				c-2.9-5.2-5.5-10.5-7.8-15.9c-2.3-5.4-4.1-10.9-5.4-16.4C282.8-685.9,282.1-691.5,282.1-697.1z"/>
			<path id="XMLID_669_" class="st7" d="M379.9-697.1c0,5.6-0.7,11.1-2,16.7c-1.3,5.6-3.1,11-5.4,16.4c-2.3,5.4-4.9,10.7-7.8,15.9
				c-2.9,5.2-6,10.2-9.2,14.9l-21.3-10.3c5.1-9.7,9.5-18.8,13-27.5c3.6-8.6,5.3-17.2,5.3-25.6c0-5.6-0.8-11.3-2.3-17.2
				c-1.5-5.9-3.4-11.5-5.5-16.8c-2.1-5.2-4.2-9.9-6.3-14c-2.1-4.1-3.8-7.1-5-9l22.4-9c3.4,5.8,6.6,11.5,9.5,17.1
				c2.9,5.6,5.5,11.1,7.6,16.5c2.2,5.4,3.9,10.8,5.1,16.1C379.2-707.6,379.9-702.3,379.9-697.1z"/>
		</g>
	</g>
</g>
<g id="XMLID_86_">
	<g id="XMLID_103_">
		<g id="XMLID_106_">
			<path id="XMLID_107_" class="st0" d="M-939.9,180.3c-3.8-3.1-6.3-7.4-7.4-12.1c-2.6-11.3-5.5-37.4,12.3-64.6
				c23.7-36.2,66.1-86.7,114.8-46.8c48.7,39.9,15,97.9-5.6,107.9C-844.9,173.9-912.3,202.5-939.9,180.3z"/>
		</g>
		<g id="XMLID_104_">
			<path id="XMLID_105_" class="st1" d="M-998,265.9c0,0-23.7,60.5,68,87.3s176.5-50.5,196.5-78s84.8-83.6,110.4-155.3
				c16.8-52.4-15.6-81.7-40.5-85.5c-25-3.7-63.6,44.9-82.3,77.4s-65.5,77.4-143.5,88.6S-993,237.8-998,265.9z"/>
		</g>
	</g>
	<g id="XMLID_100_">
		<path id="XMLID_101_" class="st2" d="M-956,200.7l-65.5,38.6v-32.7l22.9-13.4l-22.9-14.7v-31.2l65.5,39.8V200.7z"/>
	</g>
</g>
<g id="XMLID_336_">
	<g id="XMLID_340_">
		<g id="XMLID_343_">
			<path id="XMLID_344_" class="st4" d="M128.6,179.8c-3.8-3.1-6.3-7.4-7.4-12.1c-2.6-11.3-5.5-37.4,12.3-64.6
				c23.7-36.2,66.1-86.7,114.8-46.8s15,97.9-5.6,107.9C223.5,173.4,156.2,202,128.6,179.8z"/>
		</g>
		<g id="XMLID_341_">
			<path id="XMLID_342_" class="st5" d="M70.5,265.9c0,0-23.7,60.5,68,87.3s176.5-50.5,196.5-78s84.8-83.6,110.4-155.3
				c16.8-52.4-15.6-81.7-40.5-85.5s-63.6,44.9-82.3,77.4c-18.7,32.4-65.5,77.4-143.5,88.6S75.5,237.8,70.5,265.9z"/>
		</g>
	</g>
	<g id="XMLID_337_">
		<path id="XMLID_338_" class="st6" d="M112.4,200.2L47,238.8v-32.7l22.9-13.4L47,178v-31.2l65.5,39.8V200.2z"/>
	</g>
</g>
<g id="XMLID_2_">
	<g id="XMLID_9_">
		<g id="XMLID_14_">
			<path id="XMLID_71_" class="st0" d="M-550,1076.3c-3.8-3.1-6.3-7.4-7.4-12.1c-2.6-11.3-5.5-37.4,12.3-64.6
				c23.7-36.2,66.1-86.7,114.8-46.8s15,97.9-5.6,107.9C-455,1069.9-522.4,1098.5-550,1076.3z"/>
		</g>
		<g id="XMLID_11_">
			<path id="XMLID_18_" class="st1" d="M-608.2,1162.4c0,0-23.7,60.5,68,87.3s176.5-50.5,196.5-78s84.8-83.6,110.4-155.3
				c16.8-52.4-15.6-81.7-40.5-85.5s-63.6,44.9-82.3,77.4c-18.7,32.4-65.5,77.4-143.5,88.6S-603.2,1134.3-608.2,1162.4z"/>
		</g>
	</g>
	<g id="XMLID_10_">
		<path id="XMLID_69_" class="st2" d="M-947.9,1035l-65.5,38.6v-32.7l22.9-13.4l-22.9-14.7v-31.2l65.5,39.8V1035z"/>
	</g>
	<g id="XMLID_6_">
		<path id="XMLID_20_" class="st3" d="M-935.5,1099.7c-4.3,0-8.4-0.7-12.4-2.2c-3.9-1.4-7.5-3.5-10.7-6.2l12-19.9
			c1.9,2.1,4.3,3.1,7.3,3.1c4.1,0,6.2-2.2,6.2-6.6v-81.7h29.3v79.4c0,5-0.8,9.7-2.3,13.8c-1.5,4.2-3.7,7.8-6.6,10.8
			c-2.8,3-6.2,5.4-10.1,7C-926.6,1098.9-930.9,1099.7-935.5,1099.7z M-933.1,979.4v-24.7h29.3v24.7H-933.1z"/>
		<path id="XMLID_31_" class="st3" d="M-865,1069c-4,0-7.8-0.7-11.3-2c-3.5-1.3-6.5-3.2-9-5.5c-2.5-2.3-4.5-5.1-5.9-8.3
			c-1.4-3.2-2.2-6.6-2.2-10.3c0-4.1,0.9-7.9,2.6-11.3c1.7-3.4,4.2-6.3,7.3-8.8c3.1-2.5,6.8-4.4,11-5.7c4.3-1.3,9-2,14.1-2
			c6.6,0,12,1,16.4,3.1v-2.5c0-3.8-1.1-6.6-3.3-8.5c-2.2-1.9-5.8-2.8-10.7-2.8c-4.6,0-8.9,0.7-12.8,2.2c-3.9,1.5-8,3.7-12.4,6.6
			l-8.5-18.2c10.7-6.9,22.9-10.3,36.6-10.3c13,0,23,2.9,30,8.6c7,5.8,10.5,14.4,10.5,25.9v15.7c0,2.8,0.4,4.7,1.2,5.8
			c0.8,1.1,2.3,1.7,4.3,1.9v24.7c-2.4,0.5-4.6,0.9-6.7,1.2c-2.1,0.3-4,0.4-5.6,0.4c-5.2,0-9.2-1-12-2.9c-2.7-1.9-4.5-4.7-5.3-8.4
			l-0.6-2.9c-3.6,4.6-7.8,8.2-12.5,10.6C-854.6,1067.7-859.6,1069-865,1069z M-856.2,1048c1.7,0,3.6-0.3,5.4-0.8
			c1.9-0.6,3.5-1.3,4.9-2.2c1.1-0.8,2.1-1.7,2.8-2.7c0.7-1,1.1-2,1.1-3v-6c-1.8-0.6-3.7-1.1-5.7-1.5c-2.1-0.4-3.9-0.6-5.6-0.6
			c-3.6,0-6.6,0.9-9,2.6c-2.4,1.8-3.6,4-3.6,6.6c0,2.3,0.9,4.1,2.7,5.6C-861.2,1047.2-858.9,1048-856.2,1048z"/>
		<path id="XMLID_36_" class="st3" d="M-742.8,1067.4l-18.4-29.6l-5.9,6.5v23.2h-29.3V954.7h29.3v61.6l21.6-30.1h30.9l-27.9,35.5
			l30.7,45.7H-742.8z"/>
		<path id="XMLID_38_" class="st3" d="M-670.6,1069c-7.1,0-13.4-1.1-19-3.3c-5.6-2.2-10.2-5.2-14-9c-3.8-3.8-6.6-8.2-8.6-13.1
			c-2-4.9-2.9-10.1-2.9-15.6c0-5.9,1-11.4,2.9-16.7c1.9-5.3,4.7-9.8,8.5-13.7c3.8-3.9,8.4-7,13.9-9.3c5.5-2.3,11.9-3.5,19.2-3.5
			c7.2,0,13.6,1.2,19.1,3.5c5.6,2.3,10.2,5.4,14,9.3c3.8,3.9,6.6,8.3,8.5,13.4c1.9,5.1,2.9,10.4,2.9,16c0,1.5-0.1,3.1-0.2,4.7
			c-0.2,1.6-0.3,3-0.5,4.2h-57c0.3,4.3,1.9,7.4,4.8,9.3c2.9,1.9,6,2.9,9.4,2.9c3.2,0,6.2-0.7,9-2.2c2.8-1.4,4.7-3.4,5.6-6l24.9,7.1
			c-3.3,6.5-8.4,11.8-15.2,15.9C-652.2,1066.9-660.6,1069-670.6,1069z M-657.6,1018.2c-0.5-3.9-2-7-4.3-9.3
			c-2.4-2.3-5.4-3.4-9.1-3.4s-6.7,1.1-9.1,3.4c-2.4,2.3-3.8,5.4-4.3,9.3H-657.6z"/>
		<path id="XMLID_41_" class="st3" d="M-616.2,1067.4V1039h23.8v28.4H-616.2z"/>
		<path id="XMLID_43_" class="st3" d="M-882,1229.9c-12.3,0-21-4.7-26.2-14.2v12.7h-25.5v-112.7h29.3v43.5c2.4-4.4,5.7-7.8,10-10.1
			c4.3-2.3,9.4-3.5,15.3-3.5c4.9,0,9.5,1.1,13.8,3.2c4.3,2.2,8,5.1,11,8.9c3.1,3.8,5.5,8.2,7.3,13.4c1.7,5.2,2.6,10.8,2.6,16.9
			c0,6.1-1,11.7-2.9,16.8c-1.9,5.1-4.5,9.5-7.9,13.2c-3.3,3.7-7.3,6.6-12,8.7C-871.6,1228.8-876.6,1229.9-882,1229.9z
			 M-890.4,1205.2c4.8,0,8.7-1.5,11.7-4.6c2.9-3.1,4.4-7.2,4.4-12.4c0-2.5-0.4-4.8-1.2-6.9c-0.8-2.2-1.8-4.1-3.1-5.7
			c-1.3-1.6-2.8-2.9-4.6-3.9c-1.8-0.9-3.8-1.4-5.9-1.4c-3.1,0-6,1.1-8.8,3.3c-2.8,2.2-4.9,5.1-6.3,8.7v14.5
			C-900.5,1202.4-895.9,1205.2-890.4,1205.2z"/>
		<path id="XMLID_46_" class="st3" d="M-778.7,1172.2c-5.7,0-10.8,0.6-15.4,1.9c-4.6,1.2-8.1,3.3-10.3,6.2v48.2h-29.3v-81.2h26.9
			v15.4c2.9-5.5,6.5-9.6,10.7-12.6c4.3-2.9,8.9-4.4,13.8-4.4c2,0,3.2,0.1,3.7,0.2V1172.2z"/>
		<path id="XMLID_48_" class="st3" d="M-746.5,1229.9c-4,0-7.8-0.7-11.3-2c-3.5-1.3-6.5-3.2-9-5.5c-2.5-2.3-4.5-5.1-5.9-8.3
			c-1.4-3.2-2.2-6.6-2.2-10.3c0-4.1,0.9-7.9,2.6-11.3c1.7-3.4,4.2-6.3,7.3-8.8c3.1-2.5,6.8-4.4,11-5.7c4.3-1.3,9-2,14.1-2
			c6.6,0,12,1,16.4,3.1v-2.5c0-3.8-1.1-6.6-3.3-8.5c-2.2-1.9-5.8-2.8-10.7-2.8c-4.6,0-8.9,0.7-12.8,2.2c-3.9,1.5-8,3.7-12.4,6.6
			l-8.5-18.2c10.7-6.9,22.9-10.3,36.6-10.3c13,0,23,2.9,30,8.6c7,5.8,10.5,14.4,10.5,25.9v15.7c0,2.8,0.4,4.7,1.2,5.8
			c0.8,1.1,2.3,1.7,4.3,1.9v24.7c-2.4,0.5-4.6,0.9-6.7,1.2c-2.1,0.3-4,0.4-5.6,0.4c-5.2,0-9.2-1-12-2.9c-2.7-1.9-4.5-4.7-5.3-8.4
			l-0.6-2.9c-3.6,4.6-7.8,8.2-12.5,10.6C-736.2,1228.7-741.2,1229.9-746.5,1229.9z M-737.7,1208.9c1.7,0,3.6-0.3,5.4-0.8
			c1.9-0.6,3.5-1.3,4.9-2.2c1.1-0.8,2.1-1.7,2.8-2.7c0.7-1,1.1-2,1.1-3v-6c-1.8-0.6-3.7-1.1-5.7-1.5c-2.1-0.4-3.9-0.6-5.6-0.6
			c-3.6,0-6.6,0.9-9,2.6c-2.4,1.8-3.6,4-3.6,6.6c0,2.3,0.9,4.1,2.7,5.6C-742.8,1208.2-740.5,1208.9-737.7,1208.9z"/>
		<path id="XMLID_51_" class="st3" d="M-682,1211.1l37.1-43.8h-34.7v-20.1h65.3v17.3l-36.9,43.9h38.3v20.1h-69V1211.1z"/>
		<path id="XMLID_53_" class="st3" d="M-562.8,1229.9c-7.1,0-13.4-1.1-19-3.3c-5.6-2.2-10.2-5.2-14-9c-3.8-3.8-6.6-8.2-8.6-13.1
			c-2-4.9-2.9-10.1-2.9-15.6c0-5.9,1-11.4,2.9-16.7c1.9-5.2,4.7-9.8,8.5-13.7c3.8-3.9,8.4-7,13.9-9.3c5.5-2.3,11.9-3.5,19.2-3.5
			c7.2,0,13.6,1.2,19.1,3.5c5.6,2.3,10.2,5.4,14,9.3c3.8,3.9,6.6,8.3,8.5,13.4c1.9,5.1,2.9,10.4,2.9,16c0,1.5-0.1,3.1-0.2,4.7
			c-0.2,1.6-0.3,3-0.5,4.2h-57c0.3,4.3,1.9,7.4,4.8,9.3c2.9,1.9,6,2.9,9.4,2.9c3.2,0,6.2-0.7,9-2.2c2.8-1.4,4.7-3.4,5.6-6l24.9,7.1
			c-3.3,6.5-8.4,11.8-15.2,15.9C-544.4,1227.8-552.8,1229.9-562.8,1229.9z M-549.8,1179.1c-0.5-3.9-2-7-4.3-9.3
			c-2.4-2.3-5.4-3.4-9.1-3.4c-3.7,0-6.7,1.1-9.1,3.4c-2.4,2.3-3.8,5.4-4.3,9.3H-549.8z"/>
		<path id="XMLID_56_" class="st3" d="M-411.8,1147.1h27.6l-33.2,81.2h-23.9l-11-30.9l-11,30.9h-23.9l-33.2-81.2h27.6l19.6,54.5
			l5.1-17.4l-14.5-37.1h23.3l6.9,23.8l6.9-23.8h23.3l-14.5,37.1l5.1,17.4L-411.8,1147.1z"/>
		<path id="XMLID_58_" class="st3" d="M-341.2,1229.9c-7.1,0-13.4-1.1-19-3.3c-5.6-2.2-10.2-5.2-14-9c-3.8-3.8-6.6-8.2-8.6-13.1
			c-2-4.9-2.9-10.1-2.9-15.6c0-5.9,1-11.4,2.9-16.7c1.9-5.2,4.7-9.8,8.5-13.7c3.8-3.9,8.4-7,13.9-9.3c5.5-2.3,11.9-3.5,19.2-3.5
			c7.2,0,13.6,1.2,19.1,3.5c5.6,2.3,10.2,5.4,14,9.3c3.8,3.9,6.6,8.3,8.5,13.4c1.9,5.1,2.9,10.4,2.9,16c0,1.5-0.1,3.1-0.2,4.7
			c-0.2,1.6-0.3,3-0.5,4.2h-57c0.3,4.3,1.9,7.4,4.8,9.3c2.9,1.9,6,2.9,9.4,2.9c3.2,0,6.2-0.7,9-2.2c2.8-1.4,4.7-3.4,5.6-6l24.9,7.1
			c-3.3,6.5-8.4,11.8-15.2,15.9C-322.8,1227.8-331.3,1229.9-341.2,1229.9z M-328.3,1179.1c-0.5-3.9-2-7-4.3-9.3
			c-2.4-2.3-5.4-3.4-9.1-3.4s-6.7,1.1-9.1,3.4c-2.4,2.3-3.8,5.4-4.3,9.3H-328.3z"/>
		<path id="XMLID_61_" class="st3" d="M-287.8,1115.6h29.3v80.4c0,6.2,2.5,9.3,7.6,9.3c1.2,0,2.6-0.2,4-0.6c1.4-0.4,2.8-1,4-1.7
			l3.7,21.6c-3.5,1.6-7.4,2.9-11.8,3.9c-4.4,0.9-8.5,1.4-12.4,1.4c-7.8,0-13.8-2-18.1-6c-4.2-4-6.3-9.8-6.3-17.4V1115.6z"/>
		<path id="XMLID_63_" class="st3" d="M-233,1115.6h29.3v80.4c0,6.2,2.5,9.3,7.6,9.3c1.2,0,2.6-0.2,4-0.6c1.4-0.4,2.8-1,4-1.7
			l3.7,21.6c-3.5,1.6-7.4,2.9-11.8,3.9c-4.4,0.9-8.5,1.4-12.4,1.4c-7.8,0-13.8-2-18.1-6c-4.2-4-6.3-9.8-6.3-17.4V1115.6z"/>
		<path id="XMLID_65_" class="st3" d="M-181.1,1174.6c0-5.2,0.6-10.5,1.9-15.8c1.2-5.3,2.9-10.7,5.1-16.1s4.7-10.9,7.6-16.5
			c2.9-5.6,6.1-11.3,9.5-17.1l22.4,9c-1.2,2-2.9,5-5,9c-2.1,4.1-4.2,8.7-6.3,14c-2.1,5.2-3.9,10.8-5.5,16.8
			c-1.5,5.9-2.3,11.7-2.3,17.2c0,8.4,1.8,17,5.3,25.6s7.9,17.8,13,27.5l-21.3,10.3c-3.2-4.7-6.3-9.7-9.2-14.9
			c-2.9-5.2-5.5-10.5-7.8-15.9s-4.1-10.9-5.4-16.4C-180.5,1185.7-181.1,1180.2-181.1,1174.6z"/>
		<path id="XMLID_67_" class="st3" d="M-83.4,1174.6c0,5.6-0.7,11.1-2,16.7c-1.3,5.6-3.1,11-5.4,16.4c-2.3,5.4-4.9,10.7-7.8,15.9
			c-2.9,5.2-6,10.2-9.2,14.9l-21.3-10.3c5.1-9.7,9.5-18.8,13-27.5c3.6-8.6,5.3-17.2,5.3-25.6c0-5.6-0.8-11.3-2.3-17.2
			c-1.5-5.9-3.4-11.5-5.5-16.8c-2.1-5.3-4.2-9.9-6.3-14c-2.1-4.1-3.8-7.1-5-9l22.4-9c3.4,5.8,6.6,11.5,9.5,17.1
			c2.9,5.6,5.5,11.1,7.6,16.5c2.2,5.4,3.9,10.8,5.1,16.1C-84,1164.1-83.4,1169.4-83.4,1174.6z"/>
	</g>
</g>
<g id="XMLID_248_">
	<g id="XMLID_292_">
		<g id="XMLID_295_">
			<path id="XMLID_296_" class="st4" d="M-550,1818.3c-3.8-3.1-6.3-7.4-7.4-12.1c-2.6-11.3-5.5-37.4,12.3-64.6
				c23.7-36.2,66.1-86.7,114.8-46.8c48.7,39.9,15,97.9-5.6,107.9C-455,1811.9-522.4,1840.5-550,1818.3z"/>
		</g>
		<g id="XMLID_293_">
			<path id="XMLID_294_" class="st5" d="M-608.2,1904.4c0,0-23.7,60.5,68,87.3s176.5-50.5,196.5-78s84.8-83.6,110.4-155.3
				c16.8-52.4-15.6-81.7-40.5-85.5c-25-3.7-63.6,44.9-82.3,77.4c-18.7,32.4-65.5,77.4-143.5,88.6S-603.2,1876.3-608.2,1904.4z"/>
		</g>
	</g>
	<g id="XMLID_289_">
		<path id="XMLID_290_" class="st6" d="M-947.9,1777l-65.5,38.6v-32.7l22.9-13.4l-22.9-14.7v-31.2l65.5,39.8V1777z"/>
	</g>
	<g id="XMLID_249_">
		<path id="XMLID_286_" class="st7" d="M-935.5,1841.7c-4.3,0-8.4-0.7-12.4-2.2c-3.9-1.4-7.5-3.5-10.7-6.2l12-19.9
			c1.9,2.1,4.3,3.1,7.3,3.1c4.1,0,6.2-2.2,6.2-6.6v-81.7h29.3v79.4c0,5-0.8,9.7-2.3,13.8c-1.5,4.2-3.7,7.8-6.6,10.8
			c-2.8,3-6.2,5.4-10.1,7C-926.6,1840.9-930.9,1841.7-935.5,1841.7z M-933.1,1721.4v-24.7h29.3v24.7H-933.1z"/>
		<path id="XMLID_283_" class="st7" d="M-865,1811c-4,0-7.8-0.7-11.3-2c-3.5-1.3-6.5-3.2-9-5.5c-2.5-2.3-4.5-5.1-5.9-8.3
			c-1.4-3.2-2.2-6.6-2.2-10.3c0-4.1,0.9-7.9,2.6-11.3c1.7-3.4,4.2-6.3,7.3-8.8c3.1-2.5,6.8-4.4,11-5.7c4.3-1.3,9-2,14.1-2
			c6.6,0,12,1,16.4,3.1v-2.5c0-3.8-1.1-6.6-3.3-8.5c-2.2-1.9-5.8-2.8-10.7-2.8c-4.6,0-8.9,0.7-12.8,2.2c-3.9,1.5-8,3.7-12.4,6.6
			l-8.5-18.2c10.7-6.9,22.9-10.3,36.6-10.3c13,0,23,2.9,30,8.6c7,5.8,10.5,14.4,10.5,25.9v15.7c0,2.8,0.4,4.7,1.2,5.8
			c0.8,1.1,2.3,1.7,4.3,1.9v24.7c-2.4,0.5-4.6,0.9-6.7,1.2c-2.1,0.3-4,0.4-5.6,0.4c-5.2,0-9.2-1-12-2.9c-2.7-1.9-4.5-4.7-5.3-8.4
			l-0.6-2.9c-3.6,4.6-7.8,8.2-12.5,10.6C-854.6,1809.7-859.6,1811-865,1811z M-856.2,1790c1.7,0,3.6-0.3,5.4-0.8
			c1.9-0.6,3.5-1.3,4.9-2.2c1.1-0.8,2.1-1.7,2.8-2.7c0.7-1,1.1-2,1.1-3v-6c-1.8-0.6-3.7-1.1-5.7-1.5c-2.1-0.4-3.9-0.6-5.6-0.6
			c-3.6,0-6.6,0.9-9,2.6c-2.4,1.8-3.6,4-3.6,6.6c0,2.3,0.9,4.1,2.7,5.6C-861.2,1789.2-858.9,1790-856.2,1790z"/>
		<path id="XMLID_281_" class="st7" d="M-742.8,1809.4l-18.4-29.6l-5.9,6.5v23.2h-29.3v-112.7h29.3v61.6l21.6-30.1h30.9l-27.9,35.5
			l30.7,45.7H-742.8z"/>
		<path id="XMLID_278_" class="st7" d="M-670.6,1811c-7.1,0-13.4-1.1-19-3.3c-5.6-2.2-10.2-5.2-14-9c-3.8-3.8-6.6-8.2-8.6-13.1
			c-2-4.9-2.9-10.1-2.9-15.6c0-5.9,1-11.4,2.9-16.7c1.9-5.3,4.7-9.8,8.5-13.7c3.8-3.9,8.4-7,13.9-9.3c5.5-2.3,11.9-3.5,19.2-3.5
			c7.2,0,13.6,1.2,19.1,3.5c5.6,2.3,10.2,5.4,14,9.3c3.8,3.9,6.6,8.3,8.5,13.4c1.9,5.1,2.9,10.4,2.9,16c0,1.5-0.1,3.1-0.2,4.7
			c-0.2,1.6-0.3,3-0.5,4.2h-57c0.3,4.3,1.9,7.4,4.8,9.3c2.9,1.9,6,2.9,9.4,2.9c3.2,0,6.2-0.7,9-2.2c2.8-1.4,4.7-3.4,5.6-6l24.9,7.1
			c-3.3,6.5-8.4,11.8-15.2,15.9C-652.2,1808.9-660.6,1811-670.6,1811z M-657.6,1760.2c-0.5-3.9-2-7-4.3-9.3
			c-2.4-2.3-5.4-3.4-9.1-3.4s-6.7,1.1-9.1,3.4c-2.4,2.3-3.8,5.4-4.3,9.3H-657.6z"/>
		<path id="XMLID_276_" class="st7" d="M-616.2,1809.4V1781h23.8v28.4H-616.2z"/>
		<path id="XMLID_273_" class="st7" d="M-882,1971.9c-12.3,0-21-4.7-26.2-14.2v12.7h-25.5v-112.7h29.3v43.5c2.4-4.4,5.7-7.8,10-10.1
			c4.3-2.3,9.4-3.5,15.3-3.5c4.9,0,9.5,1.1,13.8,3.2c4.3,2.2,8,5.1,11,8.9c3.1,3.8,5.5,8.2,7.3,13.4c1.7,5.2,2.6,10.8,2.6,16.9
			c0,6.1-1,11.7-2.9,16.8c-1.9,5.1-4.5,9.5-7.9,13.2c-3.3,3.7-7.3,6.6-12,8.7C-871.6,1970.8-876.6,1971.9-882,1971.9z
			 M-890.4,1947.2c4.8,0,8.7-1.5,11.7-4.6c2.9-3.1,4.4-7.2,4.4-12.4c0-2.5-0.4-4.8-1.2-6.9c-0.8-2.2-1.8-4.1-3.1-5.7
			c-1.3-1.6-2.8-2.9-4.6-3.9c-1.8-0.9-3.8-1.4-5.9-1.4c-3.1,0-6,1.1-8.8,3.3c-2.8,2.2-4.9,5.1-6.3,8.7v14.5
			C-900.5,1944.4-895.9,1947.2-890.4,1947.2z"/>
		<path id="XMLID_271_" class="st7" d="M-778.7,1914.2c-5.7,0-10.8,0.6-15.4,1.9c-4.6,1.2-8.1,3.3-10.3,6.2v48.2h-29.3v-81.2h26.9
			v15.4c2.9-5.5,6.5-9.6,10.7-12.6c4.3-2.9,8.9-4.4,13.8-4.4c2,0,3.2,0.1,3.7,0.2V1914.2z"/>
		<path id="XMLID_268_" class="st7" d="M-746.5,1971.9c-4,0-7.8-0.7-11.3-2c-3.5-1.3-6.5-3.2-9-5.5c-2.5-2.3-4.5-5.1-5.9-8.3
			c-1.4-3.2-2.2-6.6-2.2-10.3c0-4.1,0.9-7.9,2.6-11.3c1.7-3.4,4.2-6.3,7.3-8.8c3.1-2.5,6.8-4.4,11-5.7c4.3-1.3,9-2,14.1-2
			c6.6,0,12,1,16.4,3.1v-2.5c0-3.8-1.1-6.6-3.3-8.5c-2.2-1.9-5.8-2.8-10.7-2.8c-4.6,0-8.9,0.7-12.8,2.2c-3.9,1.5-8,3.7-12.4,6.6
			l-8.5-18.2c10.7-6.9,22.9-10.3,36.6-10.3c13,0,23,2.9,30,8.6c7,5.8,10.5,14.4,10.5,25.9v15.7c0,2.8,0.4,4.7,1.2,5.8
			c0.8,1.1,2.3,1.7,4.3,1.9v24.7c-2.4,0.5-4.6,0.9-6.7,1.2c-2.1,0.3-4,0.4-5.6,0.4c-5.2,0-9.2-1-12-2.9c-2.7-1.9-4.5-4.7-5.3-8.4
			l-0.6-2.9c-3.6,4.6-7.8,8.2-12.5,10.6C-736.2,1970.7-741.2,1971.9-746.5,1971.9z M-737.7,1950.9c1.7,0,3.6-0.3,5.4-0.8
			c1.9-0.6,3.5-1.3,4.9-2.2c1.1-0.8,2.1-1.7,2.8-2.7c0.7-1,1.1-2,1.1-3v-6c-1.8-0.6-3.7-1.1-5.7-1.5c-2.1-0.4-3.9-0.6-5.6-0.6
			c-3.6,0-6.6,0.9-9,2.6c-2.4,1.8-3.6,4-3.6,6.6c0,2.3,0.9,4.1,2.7,5.6C-742.8,1950.2-740.5,1950.9-737.7,1950.9z"/>
		<path id="XMLID_266_" class="st7" d="M-682,1953.1l37.1-43.8h-34.7v-20.1h65.3v17.3l-36.9,43.9h38.3v20.1h-69V1953.1z"/>
		<path id="XMLID_263_" class="st7" d="M-562.8,1971.9c-7.1,0-13.4-1.1-19-3.3c-5.6-2.2-10.2-5.2-14-9c-3.8-3.8-6.6-8.2-8.6-13.1
			c-2-4.9-2.9-10.1-2.9-15.6c0-5.9,1-11.4,2.9-16.7c1.9-5.2,4.7-9.8,8.5-13.7c3.8-3.9,8.4-7,13.9-9.3c5.5-2.3,11.9-3.5,19.2-3.5
			c7.2,0,13.6,1.2,19.1,3.5c5.6,2.3,10.2,5.4,14,9.3c3.8,3.9,6.6,8.3,8.5,13.4c1.9,5.1,2.9,10.4,2.9,16c0,1.5-0.1,3.1-0.2,4.7
			c-0.2,1.6-0.3,3-0.5,4.2h-57c0.3,4.3,1.9,7.4,4.8,9.3c2.9,1.9,6,2.9,9.4,2.9c3.2,0,6.2-0.7,9-2.2c2.8-1.4,4.7-3.4,5.6-6l24.9,7.1
			c-3.3,6.5-8.4,11.8-15.2,15.9C-544.4,1969.8-552.8,1971.9-562.8,1971.9z M-549.8,1921.1c-0.5-3.9-2-7-4.3-9.3
			c-2.4-2.3-5.4-3.4-9.1-3.4c-3.7,0-6.7,1.1-9.1,3.4c-2.4,2.3-3.8,5.4-4.3,9.3H-549.8z"/>
		<path id="XMLID_261_" class="st7" d="M-411.8,1889.1h27.6l-33.2,81.2h-23.9l-11-30.9l-11,30.9h-23.9l-33.2-81.2h27.6l19.6,54.5
			l5.1-17.4l-14.5-37.1h23.3l6.9,23.8l6.9-23.8h23.3l-14.5,37.1l5.1,17.4L-411.8,1889.1z"/>
		<path id="XMLID_258_" class="st7" d="M-341.2,1971.9c-7.1,0-13.4-1.1-19-3.3c-5.6-2.2-10.2-5.2-14-9c-3.8-3.8-6.6-8.2-8.6-13.1
			c-2-4.9-2.9-10.1-2.9-15.6c0-5.9,1-11.4,2.9-16.7c1.9-5.2,4.7-9.8,8.5-13.7c3.8-3.9,8.4-7,13.9-9.3c5.5-2.3,11.9-3.5,19.2-3.5
			c7.2,0,13.6,1.2,19.1,3.5c5.6,2.3,10.2,5.4,14,9.3c3.8,3.9,6.6,8.3,8.5,13.4c1.9,5.1,2.9,10.4,2.9,16c0,1.5-0.1,3.1-0.2,4.7
			c-0.2,1.6-0.3,3-0.5,4.2h-57c0.3,4.3,1.9,7.4,4.8,9.3c2.9,1.9,6,2.9,9.4,2.9c3.2,0,6.2-0.7,9-2.2c2.8-1.4,4.7-3.4,5.6-6l24.9,7.1
			c-3.3,6.5-8.4,11.8-15.2,15.9C-322.8,1969.8-331.3,1971.9-341.2,1971.9z M-328.3,1921.1c-0.5-3.9-2-7-4.3-9.3
			c-2.4-2.3-5.4-3.4-9.1-3.4s-6.7,1.1-9.1,3.4c-2.4,2.3-3.8,5.4-4.3,9.3H-328.3z"/>
		<path id="XMLID_256_" class="st7" d="M-287.8,1857.6h29.3v80.4c0,6.2,2.5,9.3,7.6,9.3c1.2,0,2.6-0.2,4-0.6c1.4-0.4,2.8-1,4-1.7
			l3.7,21.6c-3.5,1.6-7.4,2.9-11.8,3.9c-4.4,0.9-8.5,1.4-12.4,1.4c-7.8,0-13.8-2-18.1-6c-4.2-4-6.3-9.8-6.3-17.4V1857.6z"/>
		<path id="XMLID_254_" class="st7" d="M-233,1857.6h29.3v80.4c0,6.2,2.5,9.3,7.6,9.3c1.2,0,2.6-0.2,4-0.6c1.4-0.4,2.8-1,4-1.7
			l3.7,21.6c-3.5,1.6-7.4,2.9-11.8,3.9c-4.4,0.9-8.5,1.4-12.4,1.4c-7.8,0-13.8-2-18.1-6c-4.2-4-6.3-9.8-6.3-17.4V1857.6z"/>
		<path id="XMLID_252_" class="st7" d="M-181.1,1916.6c0-5.2,0.6-10.5,1.9-15.8c1.2-5.3,2.9-10.7,5.1-16.1s4.7-10.9,7.6-16.5
			c2.9-5.6,6.1-11.3,9.5-17.1l22.4,9c-1.2,2-2.9,5-5,9c-2.1,4.1-4.2,8.7-6.3,14c-2.1,5.2-3.9,10.8-5.5,16.8
			c-1.5,5.9-2.3,11.7-2.3,17.2c0,8.4,1.8,17,5.3,25.6s7.9,17.8,13,27.5l-21.3,10.3c-3.2-4.7-6.3-9.7-9.2-14.9
			c-2.9-5.2-5.5-10.5-7.8-15.9s-4.1-10.9-5.4-16.4C-180.5,1927.7-181.1,1922.2-181.1,1916.6z"/>
		<path id="XMLID_250_" class="st7" d="M-83.4,1916.6c0,5.6-0.7,11.1-2,16.7c-1.3,5.6-3.1,11-5.4,16.4c-2.3,5.4-4.9,10.7-7.8,15.9
			c-2.9,5.2-6,10.2-9.2,14.9l-21.3-10.3c5.1-9.7,9.5-18.8,13-27.5c3.6-8.6,5.3-17.2,5.3-25.6c0-5.6-0.8-11.3-2.3-17.2
			c-1.5-5.9-3.4-11.5-5.5-16.8c-2.1-5.3-4.2-9.9-6.3-14c-2.1-4.1-3.8-7.1-5-9l22.4-9c3.4,5.8,6.6,11.5,9.5,17.1
			c2.9,5.6,5.5,11.1,7.6,16.5c2.2,5.4,3.9,10.8,5.1,16.1C-84,1906.1-83.4,1911.4-83.4,1916.6z"/>
	</g>
</g>
</svg>
