<?xml version="1.0" encoding="utf-8"?>
<!-- Generator: Adobe Illustrator 19.0.0, SVG Export Plug-In . SVG Version: 6.00 Build 0)  -->
<svg version="1.1" id="Capa_1" xmlns="http://www.w3.org/2000/svg" xmlns:xlink="http://www.w3.org/1999/xlink" x="0px" y="0px"
	 viewBox="-465 467.2 67.3 67.8" style="enable-background:new -465 467.2 67.3 67.8;" xml:space="preserve">
<style type="text/css">
	.st0{fill:#FF6679;}
	.st1{fill:#2AA7B4;}
	.st2{fill:#E0E6EB;}
</style>
<g id="XMLID_9_">
	<path id="XMLID_79_" class="st0" d="M-407.6,489.5L-407.6,489.5c0.2-0.4,0.1-0.8-0.2-1l-2.9-2.9c-0.3-0.3-0.7-0.3-1-0.2l0,0
		c-0.7-0.3-1-0.4-1.6-0.7l0,0c-0.1-0.4-0.5-0.6-0.9-0.6h-4.1c-0.4,0-0.7,0.2-0.9,0.6l0,0c-0.7,0.3-1,0.4-1.6,0.7l0,0
		c-0.3-0.2-0.8-0.1-1,0.2l-2.9,2.9c-0.3,0.3-0.3,0.7-0.2,1l0,0c-0.3,0.7-0.4,1-0.7,1.6l0,0c-0.4,0.1-0.6,0.5-0.6,0.9v4.1
		c0,0.4,0.2,0.7,0.6,0.9l0,0c0.3,0.7,0.4,1,0.7,1.6l0,0c-0.2,0.3-0.1,0.8,0.2,1l2.9,2.9c0.3,0.3,0.7,0.3,1,0.2l0,0
		c0.7,0.3,1,0.4,1.6,0.7l0,0c0.1,0.4,0.5,0.6,0.9,0.6h4.1c0.4,0,0.7-0.2,0.9-0.6l0,0c0.7-0.3,1-0.4,1.6-0.7l0,0
		c0.3,0.2,0.8,0.1,1-0.2l2.9-2.9c0.3-0.3,0.3-0.7,0.2-1l0,0c0.3-0.7,0.4-1,0.7-1.6l0,0c0.4-0.1,0.6-0.5,0.6-0.9V492
		c0-0.4-0.2-0.7-0.6-0.9l0,0C-407.2,490.5-407.4,490.2-407.6,489.5z M-408.4,494.7c0,0.4-0.2,0.7-0.6,0.9l-0.6,0.2l-0.2,0.5
		c-0.1,0.3-0.3,0.7-0.4,1l-0.2,0.5l0.3,0.5c0.2,0.3,0.1,0.8-0.2,1l-0.9,0.9c-0.3,0.3-0.7,0.3-1,0.2l-0.5-0.3l-0.5,0.2
		c-0.3,0.2-0.7,0.3-1,0.4l-0.5,0.2l-0.2,0.6c-0.1,0.4-0.5,0.6-0.9,0.6h-1.3c-0.4,0-0.7-0.2-0.9-0.6l-0.2-0.6l-0.5-0.2
		c-0.3-0.1-0.7-0.3-1-0.4l-0.5-0.2l-0.5,0.3c-0.3,0.2-0.8,0.1-1-0.2l-0.9-0.9c-0.3-0.3-0.3-0.7-0.2-1l0.3-0.5l-0.2-0.5
		c-0.2-0.3-0.3-0.7-0.4-1l-0.2-0.5l-0.6-0.2c-0.4-0.1-0.6-0.5-0.6-0.9v-1.3c0-0.4,0.2-0.7,0.6-0.9l0.6-0.2l0.2-0.5
		c0.1-0.3,0.3-0.7,0.4-1l0.2-0.5l-0.3-0.5c-0.2-0.3-0.1-0.8,0.2-1l0.9-0.9c0.3-0.3,0.7-0.3,1-0.2l0.5,0.3l0.5-0.2
		c0.3-0.2,0.7-0.3,1-0.4l0.5-0.2l0.2-0.6c0.1-0.4,0.5-0.6,0.9-0.6h1.3c0.4,0,0.7,0.2,0.9,0.6l0.2,0.6l0.5,0.2c0.3,0.1,0.7,0.3,1,0.4
		l0.5,0.2l0.5-0.3c0.3-0.2,0.8-0.1,1,0.2l0.9,0.9c0.3,0.3,0.3,0.7,0.2,1l-0.3,0.5l0.2,0.5c0.2,0.3,0.3,0.7,0.4,1l0.2,0.5l0.6,0.2
		c0.4,0.1,0.6,0.5,0.6,0.9V494.7z"/>
	<path id="XMLID_76_" class="st1" d="M-416.4,489.1c-2.8,0-5,2.2-5,5s2.2,5,5,5s5-2.2,5-5S-413.6,489.1-416.4,489.1z M-416.4,497.1
		c-1.7,0-3-1.3-3-3s1.3-3,3-3s3,1.3,3,3S-414.7,497.1-416.4,497.1z"/>
	<path id="XMLID_61_" class="st2" d="M-403.4,470.1h-26c-1.7,0-3,1.3-3,3v7h-8.1c-0.4-2.2-2.3-3.8-4.6-4c-1.1-2.4-3.6-4-6.3-4
		s-5.2,1.6-6.3,4c-2.6,0.2-4.7,2.3-4.7,5c0,2.8,2.2,5,5,5h5v4h-5c-2.8,0-5,2.2-5,5v26c0,2.8,2.2,5,5,5h11v4h-4v2h30v-2h-4v-4h11
		c2.8,0,5-2.2,5-5v-11h5c1.7,0,3-1.3,3-3v-34C-400.4,471.4-401.7,470.1-403.4,470.1z M-429.4,472.1h26c0.6,0,1,0.4,1,1v5h-28v-5
		C-430.4,472.5-429.9,472.1-429.4,472.1z M-460.4,481.1c0-1.6,1.3-3,3.1-3l0,0l1,0.1l0.3-0.7c0.7-2,2.6-3.4,4.7-3.4s4,1.4,4.7,3.4
		l0.3,0.7l1-0.1c1.7,0,3,1.3,3,3s-1.3,3-3,3h-12C-459,484.1-460.4,482.8-460.4,481.1z M-450.4,486.1h5c2.4,0,4.4-1.7,4.9-4h8.1v8
		h-18V486.1z M-426.4,530.1h-18v-4h18V530.1z M-413.4,524.1h-44c-1.7,0-3-1.3-3-3v-3h50v3C-410.4,522.8-411.7,524.1-413.4,524.1z
		 M-410.4,516.1h-50v-21c0-1.7,1.3-3,3-3h25v15c0,1.7,1.3,3,3,3h19V516.1z M-403.4,508.1h-26c-0.6,0-1-0.4-1-1v-27h28v27
		C-402.4,507.7-402.8,508.1-403.4,508.1z"/>
	<path id="XMLID_60_" class="st1" d="M-419.4,474.1L-419.4,474.1c0.6,0,1,0.4,1,1l0,0c0,0.6-0.4,1-1,1l0,0c-0.6,0-1-0.4-1-1l0,0
		C-420.4,474.5-419.9,474.1-419.4,474.1z"/>
	<path id="XMLID_59_" class="st1" d="M-427.4,474.1L-427.4,474.1c0.6,0,1,0.4,1,1l0,0c0,0.6-0.4,1-1,1l0,0c-0.6,0-1-0.4-1-1l0,0
		C-428.4,474.5-427.9,474.1-427.4,474.1z"/>
	<path id="XMLID_58_" class="st1" d="M-423.4,474.1L-423.4,474.1c0.6,0,1,0.4,1,1l0,0c0,0.6-0.4,1-1,1l0,0c-0.6,0-1-0.4-1-1l0,0
		C-424.4,474.5-423.9,474.1-423.4,474.1z"/>
	<circle id="XMLID_57_" class="st1" cx="-421.4" cy="521.1" r="1"/>
	<circle id="XMLID_56_" class="st1" cx="-417.4" cy="521.1" r="1"/>
	<circle id="XMLID_55_" class="st1" cx="-413.4" cy="521.1" r="1"/>
	<path id="XMLID_52_" class="st1" d="M-453.4,494.1h-4c-0.6,0-1,0.4-1,1v6c0,0.6,0.4,1,1,1h4c0.6,0,1-0.4,1-1v-6
		C-452.4,494.5-452.8,494.1-453.4,494.1z M-455.4,500.1L-455.4,500.1c-0.6,0-1-0.4-1-1v-2c0-0.6,0.4-1,1-1l0,0c0.6,0,1,0.4,1,1v2
		C-454.4,499.7-454.8,500.1-455.4,500.1z"/>
	<path id="XMLID_49_" class="st1" d="M-445.4,494.1h-4c-0.6,0-1,0.4-1,1v6c0,0.6,0.4,1,1,1h4c0.6,0,1-0.4,1-1v-6
		C-444.4,494.5-444.8,494.1-445.4,494.1z M-447.4,500.1L-447.4,500.1c-0.6,0-1-0.4-1-1v-2c0-0.6,0.4-1,1-1l0,0c0.6,0,1,0.4,1,1v2
		C-446.4,499.7-446.8,500.1-447.4,500.1z"/>
	<path id="XMLID_43_" class="st1" d="M-437.4,494.1h-4c-0.6,0-1,0.4-1,1v6c0,0.6,0.4,1,1,1h4c0.6,0,1-0.4,1-1v-6
		C-436.4,494.5-436.8,494.1-437.4,494.1z M-439.4,500.1L-439.4,500.1c-0.6,0-1-0.4-1-1v-2c0-0.6,0.4-1,1-1l0,0c0.6,0,1,0.4,1,1v2
		C-438.4,499.7-438.8,500.1-439.4,500.1z"/>
	<path id="XMLID_42_" class="st0" d="M-457.4,504.1h2c0.6,0,1,0.4,1,1l0,0c0,0.6-0.4,1-1,1h-2c-0.6,0-1-0.4-1-1l0,0
		C-458.4,504.5-457.9,504.1-457.4,504.1z"/>
	<path id="XMLID_41_" class="st0" d="M-451.4,504.1h16c0.6,0,1,0.4,1,1l0,0c0,0.6-0.4,1-1,1h-16c-0.6,0-1-0.4-1-1l0,0
		C-452.4,504.5-451.9,504.1-451.4,504.1z"/>
	<path id="XMLID_40_" class="st0" d="M-457.4,508.1h22c0.6,0,1,0.4,1,1l0,0c0,0.6-0.4,1-1,1h-22c-0.6,0-1-0.4-1-1l0,0
		C-458.4,508.5-457.9,508.1-457.4,508.1z"/>
	<path id="XMLID_36_" class="st0" d="M-457.4,512.1h6c0.6,0,1,0.4,1,1l0,0c0,0.6-0.4,1-1,1h-6c-0.6,0-1-0.4-1-1l0,0
		C-458.4,512.5-457.9,512.1-457.4,512.1z"/>
	<path id="XMLID_26_" class="st0" d="M-447.4,512.1h0.1c0.5,0,0.9,0.4,0.9,0.9v0.1c0,0.5-0.4,0.9-0.9,0.9h-0.1
		c-0.5,0-0.9-0.4-0.9-0.9V513C-448.4,512.5-447.9,512.1-447.4,512.1z"/>
	<path id="XMLID_25_" class="st0" d="M-443.1,512.1h8c0.6,0,1,0.4,1,1l0,0c0,0.6-0.4,1-1,1h-8c-0.6,0-1-0.4-1-1l0,0
		C-444.1,512.5-443.7,512.1-443.1,512.1z"/>
	<path id="XMLID_14_" class="st1" d="M-413.4,512.1L-413.4,512.1c0.6,0,1,0.4,1,1l0,0c0,0.6-0.4,1-1,1l0,0c-0.6,0-1-0.4-1-1l0,0
		C-414.4,512.5-413.9,512.1-413.4,512.1z"/>
	<path id="XMLID_12_" class="st1" d="M-425.4,512.1L-425.4,512.1c0.6,0,1,0.4,1,1l0,0c0,0.6-0.4,1-1,1l0,0c-0.6,0-1-0.4-1-1l0,0
		C-426.4,512.5-425.9,512.1-425.4,512.1z"/>
	<path id="XMLID_11_" class="st1" d="M-417.4,512.1L-417.4,512.1c0.6,0,1,0.4,1,1l0,0c0,0.6-0.4,1-1,1l0,0c-0.6,0-1-0.4-1-1l0,0
		C-418.4,512.5-417.9,512.1-417.4,512.1z"/>
	<path id="XMLID_10_" class="st1" d="M-421.4,512.1L-421.4,512.1c0.6,0,1,0.4,1,1l0,0c0,0.6-0.4,1-1,1l0,0c-0.6,0-1-0.4-1-1l0,0
		C-422.4,512.5-421.9,512.1-421.4,512.1z"/>
</g>
</svg>
