<?xml version="1.0" encoding="utf-8"?>
<!-- Generator: Adobe Illustrator 19.0.0, SVG Export Plug-In . SVG Version: 6.00 Build 0)  -->
<svg version="1.1" id="Capa_1" xmlns="http://www.w3.org/2000/svg" xmlns:xlink="http://www.w3.org/1999/xlink" x="0px" y="0px"
	 viewBox="-473.3 470.5 67.3 67.8" style="enable-background:new -473.3 470.5 67.3 67.8;" xml:space="preserve">
<style type="text/css">
	.st0{fill:#FFB399;}
	.st1{fill:#96CFC6;}
	.st2{fill:#4F4E5D;}
</style>
<g id="XMLID_9_">
	<path id="XMLID_79_" class="st0" d="M-415,492.9L-415,492.9c0.2-0.4,0.1-0.8-0.2-1l-2.9-2.9c-0.3-0.3-0.7-0.3-1-0.2l0,0
		c-0.7-0.3-1-0.4-1.6-0.7l0,0c-0.1-0.4-0.5-0.6-0.9-0.6h-4.1c-0.4,0-0.7,0.2-0.9,0.6l0,0c-0.7,0.3-1,0.4-1.6,0.7l0,0
		c-0.3-0.2-0.8-0.1-1,0.2l-2.9,2.9c-0.3,0.3-0.3,0.7-0.2,1l0,0c-0.3,0.7-0.4,1-0.7,1.6l0,0c-0.4,0.1-0.6,0.5-0.6,0.9v4.1
		c0,0.4,0.2,0.7,0.6,0.9l0,0c0.3,0.7,0.4,1,0.7,1.6l0,0c-0.2,0.3-0.1,0.8,0.2,1l2.9,2.9c0.3,0.3,0.7,0.3,1,0.2l0,0
		c0.7,0.3,1,0.4,1.6,0.7l0,0c0.1,0.4,0.5,0.6,0.9,0.6h4.1c0.4,0,0.7-0.2,0.9-0.6l0,0c0.7-0.3,1-0.4,1.6-0.7l0,0
		c0.3,0.2,0.8,0.1,1-0.2l2.9-2.9c0.3-0.3,0.3-0.7,0.2-1l0,0c0.3-0.7,0.4-1,0.7-1.6l0,0c0.4-0.1,0.6-0.5,0.6-0.9v-4.1
		c0-0.4-0.2-0.7-0.6-0.9l0,0C-414.6,493.9-414.8,493.6-415,492.9z M-415.8,498.1c0,0.4-0.2,0.7-0.6,0.9l-0.6,0.2l-0.2,0.5
		c-0.1,0.3-0.3,0.7-0.4,1l-0.2,0.5l0.3,0.5c0.2,0.3,0.1,0.8-0.2,1l-0.9,0.9c-0.3,0.3-0.7,0.3-1,0.2l-0.5-0.3l-0.5,0.2
		c-0.3,0.2-0.7,0.3-1,0.4l-0.5,0.2l-0.2,0.6c-0.1,0.4-0.5,0.6-0.9,0.6h-1.3c-0.4,0-0.7-0.2-0.9-0.6l-0.2-0.6l-0.5-0.2
		c-0.3-0.1-0.7-0.3-1-0.4l-0.5-0.2l-0.5,0.3c-0.3,0.2-0.8,0.1-1-0.2l-0.9-0.9c-0.3-0.3-0.3-0.7-0.2-1l0.3-0.5l-0.2-0.5
		c-0.2-0.3-0.3-0.7-0.4-1l-0.2-0.5l-0.6-0.2c-0.4-0.1-0.6-0.5-0.6-0.9v-1.3c0-0.4,0.2-0.7,0.6-0.9l0.6-0.2l0.2-0.5
		c0.1-0.3,0.3-0.7,0.4-1l0.2-0.5l-0.3-0.5c-0.2-0.3-0.1-0.8,0.2-1l0.9-0.9c0.3-0.3,0.7-0.3,1-0.2l0.5,0.3l0.5-0.2
		c0.3-0.2,0.7-0.3,1-0.4l0.5-0.2l0.2-0.6c0.1-0.4,0.5-0.6,0.9-0.6h1.3c0.4,0,0.7,0.2,0.9,0.6l0.2,0.6l0.5,0.2c0.3,0.1,0.7,0.3,1,0.4
		l0.5,0.2l0.5-0.3c0.3-0.2,0.8-0.1,1,0.2l0.9,0.9c0.3,0.3,0.3,0.7,0.2,1l-0.3,0.5l0.2,0.5c0.2,0.3,0.3,0.7,0.4,1l0.2,0.5l0.6,0.2
		c0.4,0.1,0.6,0.5,0.6,0.9V498.1z"/>
	<path id="XMLID_76_" class="st1" d="M-423.8,492.5c-2.8,0-5,2.2-5,5s2.2,5,5,5s5-2.2,5-5S-421,492.5-423.8,492.5z M-423.8,500.5
		c-1.7,0-3-1.3-3-3s1.3-3,3-3s3,1.3,3,3S-422.1,500.5-423.8,500.5z"/>
	<path id="XMLID_61_" class="st2" d="M-410.8,473.5h-26c-1.7,0-3,1.3-3,3v7h-8.1c-0.4-2.2-2.3-3.8-4.6-4c-1.1-2.4-3.6-4-6.3-4
		s-5.2,1.6-6.3,4c-2.6,0.2-4.7,2.3-4.7,5c0,2.8,2.2,5,5,5h5v4h-5c-2.8,0-5,2.2-5,5v26c0,2.8,2.2,5,5,5h11v4h-4v2h30v-2h-4v-4h11
		c2.8,0,5-2.2,5-5v-11h5c1.7,0,3-1.3,3-3v-34C-407.8,474.8-409.1,473.5-410.8,473.5z M-436.8,475.5h26c0.6,0,1,0.4,1,1v5h-28v-5
		C-437.8,475.9-437.3,475.5-436.8,475.5z M-467.8,484.5c0-1.6,1.3-3,3.1-3c0,0,0,0,0,0l1,0.1l0.3-0.7c0.7-2,2.6-3.4,4.7-3.4
		s4,1.4,4.7,3.4l0.3,0.7l1-0.1c1.7,0,3,1.3,3,3s-1.3,3-3,3h-12C-466.4,487.5-467.8,486.2-467.8,484.5z M-457.8,489.5h5
		c2.4,0,4.4-1.7,4.9-4h8.1v8h-18V489.5z M-433.8,533.5h-18v-4h18V533.5z M-420.8,527.5h-44c-1.7,0-3-1.3-3-3v-3h50v3
		C-417.8,526.2-419.1,527.5-420.8,527.5z M-417.8,519.5h-50v-21c0-1.7,1.3-3,3-3h25v15c0,1.7,1.3,3,3,3h19V519.5z M-410.8,511.5h-26
		c-0.6,0-1-0.4-1-1v-27h28v27C-409.8,511.1-410.2,511.5-410.8,511.5z"/>
	<path id="XMLID_60_" class="st1" d="M-426.8,477.5L-426.8,477.5c0.6,0,1,0.4,1,1l0,0c0,0.6-0.4,1-1,1l0,0c-0.6,0-1-0.4-1-1l0,0
		C-427.8,477.9-427.3,477.5-426.8,477.5z"/>
	<path id="XMLID_59_" class="st1" d="M-434.8,477.5L-434.8,477.5c0.6,0,1,0.4,1,1l0,0c0,0.6-0.4,1-1,1l0,0c-0.6,0-1-0.4-1-1l0,0
		C-435.8,477.9-435.3,477.5-434.8,477.5z"/>
	<path id="XMLID_58_" class="st1" d="M-430.8,477.5L-430.8,477.5c0.6,0,1,0.4,1,1l0,0c0,0.6-0.4,1-1,1l0,0c-0.6,0-1-0.4-1-1l0,0
		C-431.8,477.9-431.3,477.5-430.8,477.5z"/>
	<circle id="XMLID_57_" class="st1" cx="-428.8" cy="524.5" r="1"/>
	<circle id="XMLID_56_" class="st1" cx="-424.8" cy="524.5" r="1"/>
	<circle id="XMLID_55_" class="st1" cx="-420.8" cy="524.5" r="1"/>
	<path id="XMLID_52_" class="st1" d="M-460.8,497.5h-4c-0.6,0-1,0.4-1,1v6c0,0.6,0.4,1,1,1h4c0.6,0,1-0.4,1-1v-6
		C-459.8,497.9-460.2,497.5-460.8,497.5z M-462.8,503.5L-462.8,503.5c-0.6,0-1-0.4-1-1v-2c0-0.6,0.4-1,1-1l0,0c0.6,0,1,0.4,1,1v2
		C-461.8,503.1-462.2,503.5-462.8,503.5z"/>
	<path id="XMLID_49_" class="st1" d="M-452.8,497.5h-4c-0.6,0-1,0.4-1,1v6c0,0.6,0.4,1,1,1h4c0.6,0,1-0.4,1-1v-6
		C-451.8,497.9-452.2,497.5-452.8,497.5z M-454.8,503.5L-454.8,503.5c-0.6,0-1-0.4-1-1v-2c0-0.6,0.4-1,1-1l0,0c0.6,0,1,0.4,1,1v2
		C-453.8,503.1-454.2,503.5-454.8,503.5z"/>
	<path id="XMLID_43_" class="st1" d="M-444.8,497.5h-4c-0.6,0-1,0.4-1,1v6c0,0.6,0.4,1,1,1h4c0.6,0,1-0.4,1-1v-6
		C-443.8,497.9-444.2,497.5-444.8,497.5z M-446.8,503.5L-446.8,503.5c-0.6,0-1-0.4-1-1v-2c0-0.6,0.4-1,1-1l0,0c0.6,0,1,0.4,1,1v2
		C-445.8,503.1-446.2,503.5-446.8,503.5z"/>
	<path id="XMLID_42_" class="st0" d="M-464.8,507.5h2c0.6,0,1,0.4,1,1l0,0c0,0.6-0.4,1-1,1h-2c-0.6,0-1-0.4-1-1l0,0
		C-465.8,507.9-465.3,507.5-464.8,507.5z"/>
	<path id="XMLID_41_" class="st0" d="M-458.8,507.5h16c0.6,0,1,0.4,1,1l0,0c0,0.6-0.4,1-1,1h-16c-0.6,0-1-0.4-1-1l0,0
		C-459.8,507.9-459.3,507.5-458.8,507.5z"/>
	<path id="XMLID_40_" class="st0" d="M-464.8,511.5h22c0.6,0,1,0.4,1,1l0,0c0,0.6-0.4,1-1,1h-22c-0.6,0-1-0.4-1-1l0,0
		C-465.8,511.9-465.3,511.5-464.8,511.5z"/>
	<path id="XMLID_36_" class="st0" d="M-464.8,515.5h6c0.6,0,1,0.4,1,1l0,0c0,0.6-0.4,1-1,1h-6c-0.6,0-1-0.4-1-1l0,0
		C-465.8,515.9-465.3,515.5-464.8,515.5z"/>
	<path id="XMLID_26_" class="st0" d="M-454.8,515.5h0.1c0.5,0,0.9,0.4,0.9,0.9v0.1c0,0.5-0.4,0.9-0.9,0.9h-0.1
		c-0.5,0-0.9-0.4-0.9-0.9v-0.1C-455.8,515.9-455.3,515.5-454.8,515.5z"/>
	<path id="XMLID_25_" class="st0" d="M-450.5,515.5h8c0.6,0,1,0.4,1,1l0,0c0,0.6-0.4,1-1,1h-8c-0.6,0-1-0.4-1-1l0,0
		C-451.5,515.9-451.1,515.5-450.5,515.5z"/>
	<path id="XMLID_14_" class="st1" d="M-420.8,515.5L-420.8,515.5c0.6,0,1,0.4,1,1l0,0c0,0.6-0.4,1-1,1l0,0c-0.6,0-1-0.4-1-1l0,0
		C-421.8,515.9-421.3,515.5-420.8,515.5z"/>
	<path id="XMLID_12_" class="st1" d="M-432.8,515.5L-432.8,515.5c0.6,0,1,0.4,1,1l0,0c0,0.6-0.4,1-1,1l0,0c-0.6,0-1-0.4-1-1l0,0
		C-433.8,515.9-433.3,515.5-432.8,515.5z"/>
	<path id="XMLID_11_" class="st1" d="M-424.8,515.5L-424.8,515.5c0.6,0,1,0.4,1,1l0,0c0,0.6-0.4,1-1,1l0,0c-0.6,0-1-0.4-1-1l0,0
		C-425.8,515.9-425.3,515.5-424.8,515.5z"/>
	<path id="XMLID_10_" class="st1" d="M-428.8,515.5L-428.8,515.5c0.6,0,1,0.4,1,1l0,0c0,0.6-0.4,1-1,1l0,0c-0.6,0-1-0.4-1-1l0,0
		C-429.8,515.9-429.3,515.5-428.8,515.5z"/>
</g>
</svg>
