<?xml version="1.0" encoding="utf-8"?>
<!-- Generator: Adobe Illustrator 19.0.0, SVG Export Plug-In . SVG Version: 6.00 Build 0)  -->
<svg version="1.1" id="Capa_1" xmlns="http://www.w3.org/2000/svg" xmlns:xlink="http://www.w3.org/1999/xlink" x="0px" y="0px"
	 viewBox="0 0 91 81" style="enable-background:new 0 0 91 81;" xml:space="preserve">
<style type="text/css">
	.st0{fill:#4F4E5D;}
	.st1{fill:#FFB399;}
	.st2{fill:#96CFC6;}
</style>
<g id="XMLID_2_">
	<path id="XMLID_32_" class="st0" d="M76.4,8.9h-62c-2,0-3.1,1.1-3.1,3.1v46c0,1.4,0.6,3,3.2,3H38L37.9,64l-7.3,1.2
		c-0.5,0.1-0.9,0.5-1.1,1l-1.2,4.2c-0.1,0.4,0,0.8,0.2,1.2c0.3,0.3,0.7,0.5,1.1,0.5H61c0.4,0,0.8-0.2,1.1-0.5
		c0.3-0.3,0.3-0.8,0.2-1.2l-1.2-4.3c-0.1-0.5-0.6-0.9-1.1-1l-6.9-1l-0.2-2.9H76c3.5,0,3.8-2.3,3.8-3v-46
		C79.8,10.1,78.5,8.9,76.4,8.9z M58.7,67.6l0.5,1.7H31.5l0.4-1.6l7.5-1.2c0.6-0.1,1.1-0.6,1.1-1.3l0.2-4.1h9.4l0.3,4.2
		c0,0.6,0.5,1.2,1.2,1.3L58.7,67.6z M77.1,58.1c0,0.1,0,0.1,0,0.1c0,0-0.3,0.2-1,0.2H51.6v0H14.4c-0.2,0-0.4,0-0.5,0
		c0-0.1,0-0.1,0-0.3v-46c0-0.2,0-0.3,0-0.4c0.1,0,0.2,0,0.4,0h62c0.5,0,0.7,0.1,0.7,0.1c0,0,0,0.1,0,0.3V58.1z"/>
	<path id="XMLID_18_" class="st1" d="M69.6,51.3L67.4,50v-6.5c0-0.5-0.3-0.9-0.7-1.2l-6.3-3.6c-0.4-0.2-0.9-0.2-1.4,0l-5.5,3.2
		l-3.4-2c0.1-0.3,0.1-0.7,0.1-1c0-2.1-1.4-3.9-3.3-4.5v-3.1l5.6-3.2c0.4-0.2,0.7-0.7,0.7-1.2v-6.4l2.3-1.3c0.7-0.4,0.9-1.2,0.5-1.9
		c-0.4-0.7-1.2-0.9-1.9-0.5l-2.2,1.3l-5.7-3.3c-0.4-0.2-0.9-0.2-1.4,0l-6.3,3.6c-0.4,0.2-0.7,0.7-0.7,1.2v7.3c0,0.5,0.3,0.9,0.7,1.2
		l5.6,3.2v3.1c-1.9,0.6-3.3,2.4-3.3,4.5c0,0.4,0,0.7,0.1,1.1l-3.4,1.9c0,0,0,0,0,0l-5.6-3.2c-0.4-0.2-0.9-0.2-1.4,0L24.9,42l-2-1.2
		c-0.7-0.4-1.5-0.2-1.9,0.5c-0.4,0.7-0.2,1.5,0.5,1.9l2.1,1.2v6.4c0,0.5,0.3,0.9,0.7,1.2l6.3,3.6c0.4,0.2,0.9,0.2,1.4,0l6.3-3.6
		c0.4-0.2,0.7-0.7,0.7-1.2v-6.5c0,0,0,0,0,0l3.4-1.9c0.8,0.8,2,1.3,3.2,1.3c1.3,0,2.4-0.5,3.2-1.3l3.3,1.9v6.6
		c0,0.5,0.3,0.9,0.7,1.2l6.3,3.6c0.2,0.1,0.4,0.2,0.7,0.2c0.2,0,0.5-0.1,0.7-0.2l5.6-3.2l2.2,1.3c0.7,0.4,1.5,0.2,1.9-0.5
		C70.5,52.5,70.2,51.7,69.6,51.3z M36.2,50l-4.9,2.9L26.3,50v-5.7l4.9-2.9l4.9,2.9V50z M40.6,26.1v-5.7l4.9-2.9l4.9,2.9v5.7L45.5,29
		L40.6,26.1z M47.3,39.7c0,0-0.1,0.1-0.1,0.1c0,0.1-0.1,0.1-0.1,0.2c-0.4,0.5-0.9,0.9-1.6,0.9c-0.7,0-1.2-0.3-1.6-0.8
		c0-0.1-0.1-0.1-0.1-0.2c0-0.1-0.1-0.1-0.1-0.2c-0.1-0.2-0.2-0.5-0.2-0.8c0-1.1,0.9-2,2-2s2,0.9,2,2C47.5,39.2,47.4,39.5,47.3,39.7z
		 M64.7,50l-4.9,2.9L54.8,50v-5.7l4.9-2.9l4.9,2.9V50z"/>
	<circle id="XMLID_15_" class="st2" cx="31.1" cy="47.2" r="1.6"/>
	<circle id="XMLID_6_" class="st2" cx="45.5" cy="23.3" r="1.6"/>
	<circle id="XMLID_3_" class="st2" cx="59.7" cy="47.2" r="1.6"/>
</g>
</svg>
