<?xml version="1.0" encoding="utf-8"?>
<!-- Generator: Adobe Illustrator 19.0.0, SVG Export Plug-In . SVG Version: 6.00 Build 0)  -->
<svg version="1.1" id="Capa_1" xmlns="http://www.w3.org/2000/svg" xmlns:xlink="http://www.w3.org/1999/xlink" x="0px" y="0px"
	 viewBox="0 0 477 409" style="enable-background:new 0 0 477 409;" xml:space="preserve">
<style type="text/css">
	.st0{fill:#96CFC6;}
	.st1{fill:#DAE3CE;}
	.st2{fill:#FFB399;}
	.st3{fill:#4F4E5D;}
	.st4{fill:#2AA7B4;}
	.st5{fill:#2A2484;}
	.st6{fill:#FF6679;}
	.st7{fill:#E0E6EB;}
</style>
<g id="XMLID_8_">
	<g id="XMLID_3_">
		<g id="XMLID_1_">
			<path id="XMLID_33_" class="st0" d="M118.6,187.8c-3.8-3.1-6.3-7.4-7.4-12.1c-2.6-11.3-5.5-37.4,12.3-64.6
				c23.7-36.2,66.1-86.7,114.8-46.8s15,97.9-5.6,107.9C213.5,181.4,146.2,210,118.6,187.8z"/>
		</g>
		<g id="XMLID_4_">
			<path id="XMLID_12_" class="st1" d="M60.5,273.9c0,0-23.7,60.5,68,87.3s176.5-50.5,196.5-78s84.8-83.6,110.4-155.3
				c16.8-52.4-15.6-81.7-40.5-85.5c-25-3.7-63.6,44.9-82.3,77.4c-18.7,32.4-65.5,77.4-143.5,88.6S65.5,245.8,60.5,273.9z"/>
		</g>
	</g>
	<g id="XMLID_5_">
		<path id="XMLID_30_" class="st2" d="M102.4,208.2L37,246.8v-32.7l22.9-13.4L37,186v-31.2l65.5,39.8V208.2z"/>
	</g>
	<g id="XMLID_7_">
		<path id="XMLID_13_" class="st3" d="M114.8,272.9c-4.3,0-8.4-0.7-12.4-2.2c-3.9-1.4-7.5-3.5-10.7-6.2l12-19.9
			c1.9,2.1,4.3,3.1,7.3,3.1c4.1,0,6.2-2.2,6.2-6.6v-81.7h29.3v79.4c0,5-0.8,9.7-2.3,13.8c-1.5,4.2-3.7,7.8-6.6,10.8
			c-2.8,3-6.2,5.4-10.1,7C123.7,272.1,119.4,272.9,114.8,272.9z M117.3,152.7V128h29.3v24.7H117.3z"/>
		<path id="XMLID_17_" class="st3" d="M161.8,240.7v-28.4h23.8v28.4H161.8z"/>
		<path id="XMLID_21_" class="st3" d="M252.4,242.2c-12.3,0-21-4.7-26.2-14.2v12.7h-25.5V128H230v43.5c2.4-4.4,5.7-7.8,10-10.1
			c4.3-2.3,9.4-3.5,15.3-3.5c4.9,0,9.5,1.1,13.8,3.2c4.3,2.2,8,5.1,11,8.9c3.1,3.8,5.5,8.2,7.3,13.4c1.7,5.2,2.6,10.8,2.6,16.9
			c0,6.1-1,11.7-2.9,16.8c-1.9,5.1-4.5,9.5-7.9,13.2c-3.3,3.7-7.3,6.6-12,8.7C262.7,241.2,257.7,242.2,252.4,242.2z M243.9,217.5
			c4.8,0,8.7-1.5,11.7-4.6c2.9-3.1,4.4-7.2,4.4-12.4c0-2.5-0.4-4.8-1.2-6.9c-0.8-2.2-1.8-4.1-3.1-5.7c-1.3-1.6-2.8-2.9-4.6-3.9
			c-1.8-0.9-3.8-1.4-5.9-1.4c-3.1,0-6,1.1-8.8,3.3c-2.8,2.2-4.9,5.1-6.3,8.7v14.5C233.8,214.7,238.4,217.5,243.9,217.5z"/>
		<path id="XMLID_24_" class="st3" d="M297,186.9c0-5.2,0.6-10.5,1.9-15.8c1.2-5.3,2.9-10.7,5.1-16.1c2.2-5.4,4.7-10.9,7.6-16.5
			c2.9-5.6,6.1-11.3,9.5-17.1l22.4,9c-1.2,2-2.9,5-5,9c-2.1,4.1-4.2,8.7-6.3,14c-2.1,5.2-3.9,10.8-5.5,16.8
			c-1.5,5.9-2.3,11.7-2.3,17.2c0,8.4,1.8,17,5.3,25.6c3.6,8.6,7.9,17.8,13,27.5l-21.3,10.3c-3.2-4.7-6.3-9.7-9.2-14.9
			c-2.9-5.2-5.5-10.5-7.8-15.9c-2.3-5.4-4.1-10.9-5.4-16.4C297.7,198.1,297,192.5,297,186.9z"/>
		<path id="XMLID_27_" class="st3" d="M394.7,186.9c0,5.6-0.7,11.1-2,16.7c-1.3,5.6-3.1,11-5.4,16.4c-2.3,5.4-4.9,10.7-7.8,15.9
			c-2.9,5.2-6,10.2-9.2,14.9L349,240.5c5.1-9.7,9.5-18.8,13-27.5c3.6-8.6,5.3-17.2,5.3-25.6c0-5.6-0.8-11.3-2.3-17.2
			c-1.5-5.9-3.4-11.5-5.5-16.8c-2.1-5.2-4.2-9.9-6.3-14c-2.1-4.1-3.8-7.1-5-9l22.4-9c3.4,5.8,6.6,11.5,9.5,17.1
			c2.9,5.6,5.5,11.1,7.6,16.5c2.2,5.4,3.9,10.8,5.1,16.1C394.1,176.4,394.7,181.7,394.7,186.9z"/>
	</g>
</g>
<g id="XMLID_187_">
	<g id="XMLID_204_">
		<g id="XMLID_207_">
			<g id="XMLID_496_">
				<path id="XMLID_497_" class="st4" d="M1166.6,187.8c-3.8-3.1-6.3-7.4-7.4-12.1c-2.6-11.3-5.5-37.4,12.3-64.6
					c23.7-36.2,66.1-86.7,114.8-46.8s15,97.9-5.6,107.9C1261.5,181.4,1194.2,210,1166.6,187.8z"/>
			</g>
		</g>
		<g id="XMLID_205_">
			<g id="XMLID_797_">
				<path id="XMLID_798_" class="st5" d="M1108.5,273.9c0,0-23.7,60.5,68,87.3s176.5-50.5,196.5-78s84.8-83.6,110.4-155.3
					c16.8-52.4-15.6-81.7-40.5-85.5c-25-3.7-63.6,44.9-82.3,77.4c-18.7,32.4-65.5,77.4-143.5,88.6S1113.5,245.8,1108.5,273.9z"/>
			</g>
		</g>
	</g>
	<g id="XMLID_201_">
		<g id="XMLID_594_">
			<path id="XMLID_595_" class="st6" d="M1150.4,208.2l-65.5,38.6v-32.7l22.9-13.4L1085,186v-31.2l65.5,39.8V208.2z"/>
		</g>
	</g>
	<g id="XMLID_188_">
		<g id="XMLID_668_">
			<path id="XMLID_678_" class="st7" d="M1162.8,272.9c-4.3,0-8.4-0.7-12.4-2.2c-3.9-1.4-7.5-3.5-10.7-6.2l12-19.9
				c1.9,2.1,4.3,3.1,7.3,3.1c4.1,0,6.2-2.2,6.2-6.6v-81.7h29.3v79.4c0,5-0.8,9.7-2.3,13.8c-1.5,4.2-3.7,7.8-6.6,10.8
				c-2.8,3-6.2,5.4-10.1,7C1171.7,272.1,1167.4,272.9,1162.8,272.9z M1165.3,152.7V128h29.3v24.7H1165.3z"/>
			<path id="XMLID_676_" class="st7" d="M1209.8,240.7v-28.4h23.8v28.4H1209.8z"/>
			<path id="XMLID_673_" class="st7" d="M1300.4,242.2c-12.3,0-21-4.7-26.2-14.2v12.7h-25.5V128h29.3v43.5c2.4-4.4,5.7-7.8,10-10.1
				c4.3-2.3,9.4-3.5,15.3-3.5c4.9,0,9.5,1.1,13.8,3.2c4.3,2.2,8,5.1,11,8.9c3.1,3.8,5.5,8.2,7.3,13.4c1.7,5.2,2.6,10.8,2.6,16.9
				c0,6.1-1,11.7-2.9,16.8c-1.9,5.1-4.5,9.5-7.9,13.2c-3.3,3.7-7.3,6.6-12,8.7C1310.7,241.2,1305.7,242.2,1300.4,242.2z
				 M1291.9,217.5c4.8,0,8.7-1.5,11.7-4.6c2.9-3.1,4.4-7.2,4.4-12.4c0-2.5-0.4-4.8-1.2-6.9c-0.8-2.2-1.8-4.1-3.1-5.7
				c-1.3-1.6-2.8-2.9-4.6-3.9c-1.8-0.9-3.8-1.4-5.9-1.4c-3.1,0-6,1.1-8.8,3.3c-2.8,2.2-4.9,5.1-6.3,8.7v14.5
				C1281.8,214.7,1286.4,217.5,1291.9,217.5z"/>
			<path id="XMLID_671_" class="st7" d="M1345,186.9c0-5.2,0.6-10.5,1.9-15.8c1.2-5.3,2.9-10.7,5.1-16.1c2.2-5.4,4.7-10.9,7.6-16.5
				c2.9-5.6,6.1-11.3,9.5-17.1l22.4,9c-1.2,2-2.9,5-5,9c-2.1,4.1-4.2,8.7-6.3,14c-2.1,5.2-3.9,10.8-5.5,16.8
				c-1.5,5.9-2.3,11.7-2.3,17.2c0,8.4,1.8,17,5.3,25.6c3.6,8.6,7.9,17.8,13,27.5l-21.3,10.3c-3.2-4.7-6.3-9.7-9.2-14.9
				c-2.9-5.2-5.5-10.5-7.8-15.9c-2.3-5.4-4.1-10.9-5.4-16.4C1345.7,198.1,1345,192.5,1345,186.9z"/>
			<path id="XMLID_669_" class="st7" d="M1442.7,186.9c0,5.6-0.7,11.1-2,16.7c-1.3,5.6-3.1,11-5.4,16.4c-2.3,5.4-4.9,10.7-7.8,15.9
				c-2.9,5.2-6,10.2-9.2,14.9l-21.3-10.3c5.1-9.7,9.5-18.8,13-27.5c3.6-8.6,5.3-17.2,5.3-25.6c0-5.6-0.8-11.3-2.3-17.2
				c-1.5-5.9-3.4-11.5-5.5-16.8c-2.1-5.2-4.2-9.9-6.3-14c-2.1-4.1-3.8-7.1-5-9l22.4-9c3.4,5.8,6.6,11.5,9.5,17.1
				c2.9,5.6,5.5,11.1,7.6,16.5c2.2,5.4,3.9,10.8,5.1,16.1C1442.1,176.4,1442.7,181.7,1442.7,186.9z"/>
		</g>
	</g>
</g>
<g id="XMLID_86_">
	<g id="XMLID_103_">
		<g id="XMLID_106_">
			<path id="XMLID_107_" class="st0" d="M123,1064.3c-3.8-3.1-6.3-7.4-7.4-12.1c-2.6-11.3-5.5-37.4,12.3-64.6
				c23.7-36.2,66.1-86.7,114.8-46.8s15,97.9-5.6,107.9C218,1057.9,150.6,1086.5,123,1064.3z"/>
		</g>
		<g id="XMLID_104_">
			<path id="XMLID_105_" class="st1" d="M64.9,1149.9c0,0-23.7,60.5,68,87.3s176.5-50.5,196.5-78s84.8-83.6,110.4-155.3
				c16.8-52.4-15.6-81.7-40.5-85.5c-25-3.7-63.6,44.9-82.3,77.4c-18.7,32.4-65.5,77.4-143.5,88.6S69.9,1121.8,64.9,1149.9z"/>
		</g>
	</g>
	<g id="XMLID_100_">
		<path id="XMLID_101_" class="st2" d="M106.9,1084.7l-65.5,38.6v-32.7l22.9-13.4l-22.9-14.7v-31.2l65.5,39.8V1084.7z"/>
	</g>
</g>
<g id="XMLID_336_">
	<g id="XMLID_340_">
		<g id="XMLID_343_">
			<path id="XMLID_344_" class="st4" d="M1191.5,1063.8c-3.8-3.1-6.3-7.4-7.4-12.1c-2.6-11.3-5.5-37.4,12.3-64.6
				c23.7-36.2,66.1-86.7,114.8-46.8c48.7,39.9,15,97.9-5.6,107.9C1286.4,1057.4,1219.1,1086,1191.5,1063.8z"/>
		</g>
		<g id="XMLID_341_">
			<path id="XMLID_342_" class="st5" d="M1133.4,1149.9c0,0-23.7,60.5,68,87.3c91.7,26.8,176.5-50.5,196.5-78s84.8-83.6,110.4-155.3
				c16.8-52.4-15.6-81.7-40.5-85.5s-63.6,44.9-82.3,77.4c-18.7,32.4-65.5,77.4-143.5,88.6
				C1163.9,1095.6,1138.3,1121.8,1133.4,1149.9z"/>
		</g>
	</g>
	<g id="XMLID_337_">
		<path id="XMLID_338_" class="st6" d="M1175.3,1084.2l-65.5,38.6v-32.7l22.9-13.4l-22.9-14.7v-31.2l65.5,39.8V1084.2z"/>
	</g>
</g>
<g id="XMLID_2_">
	<g id="XMLID_9_">
		<g id="XMLID_14_">
			<path id="XMLID_71_" class="st0" d="M512.9,1960.3c-3.8-3.1-6.3-7.4-7.4-12.1c-2.6-11.3-5.5-37.4,12.3-64.6
				c23.7-36.2,66.1-86.7,114.8-46.8c48.7,39.9,15,97.9-5.6,107.9C607.9,1953.9,540.5,1982.5,512.9,1960.3z"/>
		</g>
		<g id="XMLID_11_">
			<path id="XMLID_18_" class="st1" d="M454.7,2046.4c0,0-23.7,60.5,68,87.3s176.5-50.5,196.5-78c20-27.4,84.8-83.6,110.4-155.3
				c16.8-52.4-15.6-81.7-40.5-85.5c-25-3.7-63.6,44.9-82.3,77.4s-65.5,77.4-143.5,88.6S459.7,2018.3,454.7,2046.4z"/>
		</g>
	</g>
	<g id="XMLID_10_">
		<path id="XMLID_69_" class="st2" d="M115,1919l-65.5,38.6v-32.7l22.9-13.4l-22.9-14.7v-31.2l65.5,39.8V1919z"/>
	</g>
	<g id="XMLID_6_">
		<path id="XMLID_20_" class="st3" d="M127.4,1983.7c-4.3,0-8.4-0.7-12.4-2.2c-3.9-1.4-7.5-3.5-10.7-6.2l12-19.9
			c1.9,2.1,4.3,3.1,7.3,3.1c4.1,0,6.2-2.2,6.2-6.6v-81.7h29.3v79.4c0,5-0.8,9.7-2.3,13.8c-1.5,4.2-3.7,7.8-6.6,10.8
			c-2.8,3-6.2,5.4-10.1,7C136.3,1982.9,132,1983.7,127.4,1983.7z M129.8,1863.4v-24.7h29.3v24.7H129.8z"/>
		<path id="XMLID_31_" class="st3" d="M197.9,1953c-4,0-7.8-0.7-11.3-2c-3.5-1.3-6.5-3.2-9-5.5c-2.5-2.3-4.5-5.1-5.9-8.3
			c-1.4-3.2-2.2-6.6-2.2-10.3c0-4.1,0.9-7.9,2.6-11.3c1.7-3.4,4.2-6.3,7.3-8.8c3.1-2.5,6.8-4.4,11-5.7c4.3-1.3,9-2,14.1-2
			c6.6,0,12,1,16.4,3.1v-2.5c0-3.8-1.1-6.6-3.3-8.5c-2.2-1.9-5.8-2.8-10.7-2.8c-4.6,0-8.9,0.7-12.8,2.2c-3.9,1.5-8,3.7-12.4,6.6
			l-8.5-18.2c10.7-6.9,22.9-10.3,36.6-10.3c13,0,23,2.9,30,8.6c7,5.8,10.5,14.4,10.5,25.9v15.7c0,2.8,0.4,4.7,1.2,5.8
			c0.8,1.1,2.3,1.7,4.3,1.9v24.7c-2.4,0.5-4.6,0.9-6.7,1.2c-2.1,0.3-4,0.4-5.6,0.4c-5.2,0-9.2-1-12-2.9c-2.7-1.9-4.5-4.7-5.3-8.4
			l-0.6-2.9c-3.6,4.6-7.8,8.2-12.5,10.6C208.3,1951.7,203.3,1953,197.9,1953z M206.7,1932c1.7,0,3.6-0.3,5.4-0.8
			c1.9-0.6,3.5-1.3,4.9-2.2c1.1-0.8,2.1-1.7,2.8-2.7c0.7-1,1.1-2,1.1-3v-6c-1.8-0.6-3.7-1.1-5.7-1.5c-2.1-0.4-3.9-0.6-5.6-0.6
			c-3.6,0-6.6,0.9-9,2.6c-2.4,1.8-3.6,4-3.6,6.6c0,2.3,0.9,4.1,2.7,5.6C201.6,1931.2,203.9,1932,206.7,1932z"/>
		<path id="XMLID_36_" class="st3" d="M320,1951.4l-18.4-29.6l-5.9,6.5v23.2h-29.3v-112.7h29.3v61.6l21.6-30.1h30.9l-27.9,35.5
			l30.7,45.7H320z"/>
		<path id="XMLID_38_" class="st3" d="M392.3,1953c-7.1,0-13.4-1.1-19-3.3c-5.6-2.2-10.2-5.2-14-9c-3.8-3.8-6.6-8.2-8.6-13.1
			c-2-4.9-2.9-10.1-2.9-15.6c0-5.9,1-11.4,2.9-16.7c1.9-5.3,4.7-9.8,8.5-13.7c3.8-3.9,8.4-7,13.9-9.3c5.5-2.3,11.9-3.5,19.2-3.5
			c7.2,0,13.6,1.2,19.1,3.5c5.6,2.3,10.2,5.4,14,9.3c3.8,3.9,6.6,8.3,8.5,13.4c1.9,5.1,2.9,10.4,2.9,16c0,1.5-0.1,3.1-0.2,4.7
			c-0.2,1.6-0.3,3-0.5,4.2h-57c0.3,4.3,1.9,7.4,4.8,9.3c2.9,1.9,6,2.9,9.4,2.9c3.2,0,6.2-0.7,9-2.2c2.8-1.4,4.7-3.4,5.6-6l24.9,7.1
			c-3.3,6.5-8.4,11.8-15.2,15.9C410.7,1950.9,402.3,1953,392.3,1953z M405.3,1902.2c-0.5-3.9-2-7-4.3-9.3c-2.4-2.3-5.4-3.4-9.1-3.4
			c-3.7,0-6.7,1.1-9.1,3.4c-2.4,2.3-3.8,5.4-4.3,9.3H405.3z"/>
		<path id="XMLID_41_" class="st3" d="M446.7,1951.4V1923h23.8v28.4H446.7z"/>
		<path id="XMLID_43_" class="st3" d="M180.9,2113.9c-12.3,0-21-4.7-26.2-14.2v12.7h-25.5v-112.7h29.3v43.5c2.4-4.4,5.7-7.8,10-10.1
			c4.3-2.3,9.4-3.5,15.3-3.5c4.9,0,9.5,1.1,13.8,3.2c4.3,2.2,8,5.1,11,8.9c3.1,3.8,5.5,8.2,7.3,13.4c1.7,5.2,2.6,10.8,2.6,16.9
			c0,6.1-1,11.7-2.9,16.8c-1.9,5.1-4.5,9.5-7.9,13.2c-3.3,3.7-7.3,6.6-12,8.7C191.3,2112.8,186.3,2113.9,180.9,2113.9z
			 M172.4,2089.2c4.8,0,8.7-1.5,11.7-4.6c2.9-3.1,4.4-7.2,4.4-12.4c0-2.5-0.4-4.8-1.2-6.9c-0.8-2.2-1.8-4.1-3.1-5.7
			c-1.3-1.6-2.8-2.9-4.6-3.9c-1.8-0.9-3.8-1.4-5.9-1.4c-3.1,0-6,1.1-8.8,3.3c-2.8,2.2-4.9,5.1-6.3,8.7v14.5
			C162.4,2086.4,167,2089.2,172.4,2089.2z"/>
		<path id="XMLID_46_" class="st3" d="M284.2,2056.2c-5.7,0-10.8,0.6-15.4,1.9c-4.6,1.2-8.1,3.3-10.3,6.2v48.2h-29.3v-81.2H256v15.4
			c2.9-5.5,6.5-9.6,10.7-12.6c4.3-2.9,8.9-4.4,13.8-4.4c2,0,3.2,0.1,3.7,0.2V2056.2z"/>
		<path id="XMLID_48_" class="st3" d="M316.3,2113.9c-4,0-7.8-0.7-11.3-2c-3.5-1.3-6.5-3.2-9-5.5c-2.5-2.3-4.5-5.1-5.9-8.3
			c-1.4-3.2-2.2-6.6-2.2-10.3c0-4.1,0.9-7.9,2.6-11.3c1.7-3.4,4.2-6.3,7.3-8.8c3.1-2.5,6.8-4.4,11-5.7c4.3-1.3,9-2,14.1-2
			c6.6,0,12,1,16.4,3.1v-2.5c0-3.8-1.1-6.6-3.3-8.5c-2.2-1.9-5.8-2.8-10.7-2.8c-4.6,0-8.9,0.7-12.8,2.2c-3.9,1.5-8,3.7-12.4,6.6
			l-8.5-18.2c10.7-6.9,22.9-10.3,36.6-10.3c13,0,23,2.9,30,8.6c7,5.8,10.5,14.4,10.5,25.9v15.7c0,2.8,0.4,4.7,1.2,5.8
			c0.8,1.1,2.3,1.7,4.3,1.9v24.7c-2.4,0.5-4.6,0.9-6.7,1.2c-2.1,0.3-4,0.4-5.6,0.4c-5.2,0-9.2-1-12-2.9c-2.7-1.9-4.5-4.7-5.3-8.4
			l-0.6-2.9c-3.6,4.6-7.8,8.2-12.5,10.6C326.7,2112.7,321.7,2113.9,316.3,2113.9z M325.1,2092.9c1.7,0,3.6-0.3,5.4-0.8
			c1.9-0.6,3.5-1.3,4.9-2.2c1.1-0.8,2.1-1.7,2.8-2.7c0.7-1,1.1-2,1.1-3v-6c-1.8-0.6-3.7-1.1-5.7-1.5c-2.1-0.4-3.9-0.6-5.6-0.6
			c-3.6,0-6.6,0.9-9,2.6c-2.4,1.8-3.6,4-3.6,6.6c0,2.3,0.9,4.1,2.7,5.6C320.1,2092.2,322.4,2092.9,325.1,2092.9z"/>
		<path id="XMLID_51_" class="st3" d="M380.9,2095.1l37.1-43.9h-34.7v-20.1h65.3v17.3l-36.9,43.9h38.3v20.1h-69V2095.1z"/>
		<path id="XMLID_53_" class="st3" d="M500.1,2113.9c-7.1,0-13.4-1.1-19-3.3c-5.6-2.2-10.2-5.2-14-9c-3.8-3.8-6.6-8.2-8.6-13.1
			c-2-4.9-2.9-10.1-2.9-15.6c0-5.9,1-11.4,2.9-16.7c1.9-5.2,4.7-9.8,8.5-13.7c3.8-3.9,8.4-7,13.9-9.3c5.5-2.3,11.9-3.5,19.2-3.5
			c7.2,0,13.6,1.2,19.1,3.5c5.6,2.3,10.2,5.4,14,9.3c3.8,3.9,6.6,8.3,8.5,13.4c1.9,5.1,2.9,10.4,2.9,16c0,1.5-0.1,3.1-0.2,4.7
			c-0.2,1.6-0.3,3-0.5,4.2h-57c0.3,4.3,1.9,7.4,4.8,9.3c2.9,1.9,6,2.9,9.4,2.9c3.2,0,6.2-0.7,9-2.2c2.8-1.4,4.7-3.4,5.6-6l24.9,7.1
			c-3.3,6.5-8.4,11.8-15.2,15.9C518.5,2111.8,510.1,2113.9,500.1,2113.9z M513,2063.1c-0.5-3.9-2-7-4.3-9.3
			c-2.4-2.3-5.4-3.4-9.1-3.4c-3.7,0-6.7,1.1-9.1,3.4c-2.4,2.3-3.8,5.4-4.3,9.3H513z"/>
		<path id="XMLID_56_" class="st3" d="M651.1,2031.1h27.6l-33.2,81.2h-23.9l-11-30.9l-11,30.9h-23.9l-33.2-81.2h27.6l19.6,54.5
			l5.1-17.4l-14.5-37.1h23.3l6.9,23.8l6.9-23.8h23.3l-14.5,37.1l5.1,17.4L651.1,2031.1z"/>
		<path id="XMLID_58_" class="st3" d="M721.6,2113.9c-7.1,0-13.4-1.1-19-3.3c-5.6-2.2-10.2-5.2-14-9c-3.8-3.8-6.6-8.2-8.6-13.1
			c-2-4.9-2.9-10.1-2.9-15.6c0-5.9,1-11.4,2.9-16.7c1.9-5.2,4.7-9.8,8.5-13.7c3.8-3.9,8.4-7,13.9-9.3c5.5-2.3,11.9-3.5,19.2-3.5
			c7.2,0,13.6,1.2,19.1,3.5c5.6,2.3,10.2,5.4,14,9.3c3.8,3.9,6.6,8.3,8.5,13.4c1.9,5.1,2.9,10.4,2.9,16c0,1.5-0.1,3.1-0.2,4.7
			c-0.2,1.6-0.3,3-0.5,4.2h-57c0.3,4.3,1.9,7.4,4.8,9.3c2.9,1.9,6,2.9,9.4,2.9c3.2,0,6.2-0.7,9-2.2c2.8-1.4,4.7-3.4,5.6-6l24.9,7.1
			c-3.3,6.5-8.4,11.8-15.2,15.9C740,2111.8,731.6,2113.9,721.6,2113.9z M734.6,2063.1c-0.5-3.9-2-7-4.3-9.3
			c-2.4-2.3-5.4-3.4-9.1-3.4c-3.7,0-6.7,1.1-9.1,3.4c-2.4,2.3-3.8,5.4-4.3,9.3H734.6z"/>
		<path id="XMLID_61_" class="st3" d="M775.1,1999.6h29.3v80.4c0,6.2,2.5,9.3,7.6,9.3c1.2,0,2.6-0.2,4-0.6c1.4-0.4,2.8-1,4-1.7
			l3.7,21.6c-3.5,1.6-7.4,2.9-11.8,3.9c-4.4,0.9-8.5,1.4-12.4,1.4c-7.8,0-13.8-2-18.1-6c-4.2-4-6.3-9.8-6.3-17.4V1999.6z"/>
		<path id="XMLID_63_" class="st3" d="M829.9,1999.6h29.3v80.4c0,6.2,2.5,9.3,7.6,9.3c1.2,0,2.6-0.2,4-0.6c1.4-0.4,2.8-1,4-1.7
			l3.7,21.6c-3.5,1.6-7.4,2.9-11.8,3.9c-4.4,0.9-8.5,1.4-12.4,1.4c-7.8,0-13.8-2-18.1-6c-4.2-4-6.3-9.8-6.3-17.4V1999.6z"/>
		<path id="XMLID_65_" class="st3" d="M881.8,2058.6c0-5.2,0.6-10.5,1.9-15.8c1.2-5.3,2.9-10.7,5.1-16.1s4.7-10.9,7.6-16.5
			c2.9-5.6,6.1-11.3,9.5-17.1l22.4,9c-1.2,2-2.9,5-5,9c-2.1,4.1-4.2,8.7-6.3,14c-2.1,5.2-3.9,10.8-5.5,16.8
			c-1.5,5.9-2.3,11.7-2.3,17.2c0,8.4,1.8,17,5.3,25.6c3.6,8.6,7.9,17.8,13,27.5l-21.3,10.3c-3.2-4.7-6.3-9.7-9.2-14.9
			c-2.9-5.2-5.5-10.5-7.8-15.9c-2.3-5.4-4.1-10.9-5.4-16.4C882.4,2069.7,881.8,2064.2,881.8,2058.6z"/>
		<path id="XMLID_67_" class="st3" d="M979.5,2058.6c0,5.6-0.7,11.1-2,16.7c-1.3,5.6-3.1,11-5.4,16.4c-2.3,5.4-4.9,10.7-7.8,15.9
			c-2.9,5.2-6,10.2-9.2,14.9l-21.3-10.3c5.1-9.7,9.5-18.8,13-27.5c3.6-8.6,5.3-17.2,5.3-25.6c0-5.6-0.8-11.3-2.3-17.2
			c-1.5-5.9-3.4-11.5-5.5-16.8c-2.1-5.3-4.2-9.9-6.3-14c-2.1-4.1-3.8-7.1-5-9l22.4-9c3.4,5.8,6.6,11.5,9.5,17.1
			c2.9,5.6,5.5,11.1,7.6,16.5c2.2,5.4,3.9,10.8,5.1,16.1C978.9,2048.1,979.5,2053.4,979.5,2058.6z"/>
	</g>
</g>
<g id="XMLID_248_">
	<g id="XMLID_292_">
		<g id="XMLID_295_">
			<path id="XMLID_296_" class="st4" d="M512.9,2702.3c-3.8-3.1-6.3-7.4-7.4-12.1c-2.6-11.3-5.5-37.4,12.3-64.6
				c23.7-36.2,66.1-86.7,114.8-46.8c48.7,39.9,15,97.9-5.6,107.9C607.9,2695.9,540.5,2724.5,512.9,2702.3z"/>
		</g>
		<g id="XMLID_293_">
			<path id="XMLID_294_" class="st5" d="M454.7,2788.4c0,0-23.7,60.5,68,87.3s176.5-50.5,196.5-78c20-27.4,84.8-83.6,110.4-155.3
				c16.8-52.4-15.6-81.7-40.5-85.5c-25-3.7-63.6,44.9-82.3,77.4s-65.5,77.4-143.5,88.6S459.7,2760.3,454.7,2788.4z"/>
		</g>
	</g>
	<g id="XMLID_289_">
		<path id="XMLID_290_" class="st6" d="M115,2661l-65.5,38.6v-32.7l22.9-13.4l-22.9-14.7v-31.2l65.5,39.8V2661z"/>
	</g>
	<g id="XMLID_249_">
		<path id="XMLID_286_" class="st7" d="M127.4,2725.7c-4.3,0-8.4-0.7-12.4-2.2c-3.9-1.4-7.5-3.5-10.7-6.2l12-19.9
			c1.9,2.1,4.3,3.1,7.3,3.1c4.1,0,6.2-2.2,6.2-6.6v-81.7h29.3v79.4c0,5-0.8,9.7-2.3,13.8c-1.5,4.2-3.7,7.8-6.6,10.8
			c-2.8,3-6.2,5.4-10.1,7C136.3,2724.9,132,2725.7,127.4,2725.7z M129.8,2605.4v-24.7h29.3v24.7H129.8z"/>
		<path id="XMLID_283_" class="st7" d="M197.9,2695c-4,0-7.8-0.7-11.3-2c-3.5-1.3-6.5-3.2-9-5.5c-2.5-2.3-4.5-5.1-5.9-8.3
			c-1.4-3.2-2.2-6.6-2.2-10.3c0-4.1,0.9-7.9,2.6-11.3c1.7-3.4,4.2-6.3,7.3-8.8c3.1-2.5,6.8-4.4,11-5.7c4.3-1.3,9-2,14.1-2
			c6.6,0,12,1,16.4,3.1v-2.5c0-3.8-1.1-6.6-3.3-8.5c-2.2-1.9-5.8-2.8-10.7-2.8c-4.6,0-8.9,0.7-12.8,2.2c-3.9,1.5-8,3.7-12.4,6.6
			l-8.5-18.2c10.7-6.9,22.9-10.3,36.6-10.3c13,0,23,2.9,30,8.6c7,5.8,10.5,14.4,10.5,25.9v15.7c0,2.8,0.4,4.7,1.2,5.8
			c0.8,1.1,2.3,1.7,4.3,1.9v24.7c-2.4,0.5-4.6,0.9-6.7,1.2c-2.1,0.3-4,0.4-5.6,0.4c-5.2,0-9.2-1-12-2.9c-2.7-1.9-4.5-4.7-5.3-8.4
			l-0.6-2.9c-3.6,4.6-7.8,8.2-12.5,10.6C208.3,2693.7,203.3,2695,197.9,2695z M206.7,2674c1.7,0,3.6-0.3,5.4-0.8
			c1.9-0.6,3.5-1.3,4.9-2.2c1.1-0.8,2.1-1.7,2.8-2.7c0.7-1,1.1-2,1.1-3v-6c-1.8-0.6-3.7-1.1-5.7-1.5c-2.1-0.4-3.9-0.6-5.6-0.6
			c-3.6,0-6.6,0.9-9,2.6c-2.4,1.8-3.6,4-3.6,6.6c0,2.3,0.9,4.1,2.7,5.6C201.6,2673.2,203.9,2674,206.7,2674z"/>
		<path id="XMLID_281_" class="st7" d="M320,2693.4l-18.4-29.6l-5.9,6.5v23.2h-29.3v-112.7h29.3v61.6l21.6-30.1h30.9l-27.9,35.5
			l30.7,45.7H320z"/>
		<path id="XMLID_278_" class="st7" d="M392.3,2695c-7.1,0-13.4-1.1-19-3.3c-5.6-2.2-10.2-5.2-14-9c-3.8-3.8-6.6-8.2-8.6-13.1
			c-2-4.9-2.9-10.1-2.9-15.6c0-5.9,1-11.4,2.9-16.7c1.9-5.3,4.7-9.8,8.5-13.7c3.8-3.9,8.4-7,13.9-9.3c5.5-2.3,11.9-3.5,19.2-3.5
			c7.2,0,13.6,1.2,19.1,3.5c5.6,2.3,10.2,5.4,14,9.3c3.8,3.9,6.6,8.3,8.5,13.4c1.9,5.1,2.9,10.4,2.9,16c0,1.5-0.1,3.1-0.2,4.7
			c-0.2,1.6-0.3,3-0.5,4.2h-57c0.3,4.3,1.9,7.4,4.8,9.3c2.9,1.9,6,2.9,9.4,2.9c3.2,0,6.2-0.7,9-2.2c2.8-1.4,4.7-3.4,5.6-6l24.9,7.1
			c-3.3,6.5-8.4,11.8-15.2,15.9C410.7,2692.9,402.3,2695,392.3,2695z M405.3,2644.2c-0.5-3.9-2-7-4.3-9.3c-2.4-2.3-5.4-3.4-9.1-3.4
			c-3.7,0-6.7,1.1-9.1,3.4c-2.4,2.3-3.8,5.4-4.3,9.3H405.3z"/>
		<path id="XMLID_276_" class="st7" d="M446.7,2693.4V2665h23.8v28.4H446.7z"/>
		<path id="XMLID_273_" class="st7" d="M180.9,2855.9c-12.3,0-21-4.7-26.2-14.2v12.7h-25.5v-112.7h29.3v43.5
			c2.4-4.4,5.7-7.8,10-10.1c4.3-2.3,9.4-3.5,15.3-3.5c4.9,0,9.5,1.1,13.8,3.2c4.3,2.2,8,5.1,11,8.9c3.1,3.8,5.5,8.2,7.3,13.4
			c1.7,5.2,2.6,10.8,2.6,16.9c0,6.1-1,11.7-2.9,16.8c-1.9,5.1-4.5,9.5-7.9,13.2c-3.3,3.7-7.3,6.6-12,8.7
			C191.3,2854.8,186.3,2855.9,180.9,2855.9z M172.4,2831.2c4.8,0,8.7-1.5,11.7-4.6c2.9-3.1,4.4-7.2,4.4-12.4c0-2.5-0.4-4.8-1.2-6.9
			c-0.8-2.2-1.8-4.1-3.1-5.7c-1.3-1.6-2.8-2.9-4.6-3.9c-1.8-0.9-3.8-1.4-5.9-1.4c-3.1,0-6,1.1-8.8,3.3c-2.8,2.2-4.9,5.1-6.3,8.7
			v14.5C162.4,2828.4,167,2831.2,172.4,2831.2z"/>
		<path id="XMLID_271_" class="st7" d="M284.2,2798.2c-5.7,0-10.8,0.6-15.4,1.9c-4.6,1.2-8.1,3.3-10.3,6.2v48.2h-29.3v-81.2H256
			v15.4c2.9-5.5,6.5-9.6,10.7-12.6c4.3-2.9,8.9-4.4,13.8-4.4c2,0,3.2,0.1,3.7,0.2V2798.2z"/>
		<path id="XMLID_268_" class="st7" d="M316.3,2855.9c-4,0-7.8-0.7-11.3-2c-3.5-1.3-6.5-3.2-9-5.5c-2.5-2.3-4.5-5.1-5.9-8.3
			c-1.4-3.2-2.2-6.6-2.2-10.3c0-4.1,0.9-7.9,2.6-11.3c1.7-3.4,4.2-6.3,7.3-8.8c3.1-2.5,6.8-4.4,11-5.7c4.3-1.3,9-2,14.1-2
			c6.6,0,12,1,16.4,3.1v-2.5c0-3.8-1.1-6.6-3.3-8.5c-2.2-1.9-5.8-2.8-10.7-2.8c-4.6,0-8.9,0.7-12.8,2.2c-3.9,1.5-8,3.7-12.4,6.6
			l-8.5-18.2c10.7-6.9,22.9-10.3,36.6-10.3c13,0,23,2.9,30,8.6c7,5.8,10.5,14.4,10.5,25.9v15.7c0,2.8,0.4,4.7,1.2,5.8
			c0.8,1.1,2.3,1.7,4.3,1.9v24.7c-2.4,0.5-4.6,0.9-6.7,1.2c-2.1,0.3-4,0.4-5.6,0.4c-5.2,0-9.2-1-12-2.9c-2.7-1.9-4.5-4.7-5.3-8.4
			l-0.6-2.9c-3.6,4.6-7.8,8.2-12.5,10.6C326.7,2854.7,321.7,2855.9,316.3,2855.9z M325.1,2834.9c1.7,0,3.6-0.3,5.4-0.8
			c1.9-0.6,3.5-1.3,4.9-2.2c1.1-0.8,2.1-1.7,2.8-2.7c0.7-1,1.1-2,1.1-3v-6c-1.8-0.6-3.7-1.1-5.7-1.5c-2.1-0.4-3.9-0.6-5.6-0.6
			c-3.6,0-6.6,0.9-9,2.6c-2.4,1.8-3.6,4-3.6,6.6c0,2.3,0.9,4.1,2.7,5.6C320.1,2834.2,322.4,2834.9,325.1,2834.9z"/>
		<path id="XMLID_266_" class="st7" d="M380.9,2837.1l37.1-43.9h-34.7v-20.1h65.3v17.3l-36.9,43.9h38.3v20.1h-69V2837.1z"/>
		<path id="XMLID_263_" class="st7" d="M500.1,2855.9c-7.1,0-13.4-1.1-19-3.3c-5.6-2.2-10.2-5.2-14-9c-3.8-3.8-6.6-8.2-8.6-13.1
			c-2-4.9-2.9-10.1-2.9-15.6c0-5.9,1-11.4,2.9-16.7c1.9-5.2,4.7-9.8,8.5-13.7c3.8-3.9,8.4-7,13.9-9.3c5.5-2.3,11.9-3.5,19.2-3.5
			c7.2,0,13.6,1.2,19.1,3.5c5.6,2.3,10.2,5.4,14,9.3c3.8,3.9,6.6,8.3,8.5,13.4c1.9,5.1,2.9,10.4,2.9,16c0,1.5-0.1,3.1-0.2,4.7
			c-0.2,1.6-0.3,3-0.5,4.2h-57c0.3,4.3,1.9,7.4,4.8,9.3c2.9,1.9,6,2.9,9.4,2.9c3.2,0,6.2-0.7,9-2.2c2.8-1.4,4.7-3.4,5.6-6l24.9,7.1
			c-3.3,6.5-8.4,11.8-15.2,15.9C518.5,2853.8,510.1,2855.9,500.1,2855.9z M513,2805.1c-0.5-3.9-2-7-4.3-9.3
			c-2.4-2.3-5.4-3.4-9.1-3.4c-3.7,0-6.7,1.1-9.1,3.4c-2.4,2.3-3.8,5.4-4.3,9.3H513z"/>
		<path id="XMLID_261_" class="st7" d="M651.1,2773.1h27.6l-33.2,81.2h-23.9l-11-30.9l-11,30.9h-23.9l-33.2-81.2h27.6l19.6,54.5
			l5.1-17.4l-14.5-37.1h23.3l6.9,23.8l6.9-23.8h23.3l-14.5,37.1l5.1,17.4L651.1,2773.1z"/>
		<path id="XMLID_258_" class="st7" d="M721.6,2855.9c-7.1,0-13.4-1.1-19-3.3c-5.6-2.2-10.2-5.2-14-9c-3.8-3.8-6.6-8.2-8.6-13.1
			c-2-4.9-2.9-10.1-2.9-15.6c0-5.9,1-11.4,2.9-16.7c1.9-5.2,4.7-9.8,8.5-13.7c3.8-3.9,8.4-7,13.9-9.3c5.5-2.3,11.9-3.5,19.2-3.5
			c7.2,0,13.6,1.2,19.1,3.5c5.6,2.3,10.2,5.4,14,9.3c3.8,3.9,6.6,8.3,8.5,13.4c1.9,5.1,2.9,10.4,2.9,16c0,1.5-0.1,3.1-0.2,4.7
			c-0.2,1.6-0.3,3-0.5,4.2h-57c0.3,4.3,1.9,7.4,4.8,9.3c2.9,1.9,6,2.9,9.4,2.9c3.2,0,6.2-0.7,9-2.2c2.8-1.4,4.7-3.4,5.6-6l24.9,7.1
			c-3.3,6.5-8.4,11.8-15.2,15.9C740,2853.8,731.6,2855.9,721.6,2855.9z M734.6,2805.1c-0.5-3.9-2-7-4.3-9.3
			c-2.4-2.3-5.4-3.4-9.1-3.4c-3.7,0-6.7,1.1-9.1,3.4c-2.4,2.3-3.8,5.4-4.3,9.3H734.6z"/>
		<path id="XMLID_256_" class="st7" d="M775.1,2741.6h29.3v80.4c0,6.2,2.5,9.3,7.6,9.3c1.2,0,2.6-0.2,4-0.6c1.4-0.4,2.8-1,4-1.7
			l3.7,21.6c-3.5,1.6-7.4,2.9-11.8,3.9c-4.4,0.9-8.5,1.4-12.4,1.4c-7.8,0-13.8-2-18.1-6c-4.2-4-6.3-9.8-6.3-17.4V2741.6z"/>
		<path id="XMLID_254_" class="st7" d="M829.9,2741.6h29.3v80.4c0,6.2,2.5,9.3,7.6,9.3c1.2,0,2.6-0.2,4-0.6c1.4-0.4,2.8-1,4-1.7
			l3.7,21.6c-3.5,1.6-7.4,2.9-11.8,3.9c-4.4,0.9-8.5,1.4-12.4,1.4c-7.8,0-13.8-2-18.1-6c-4.2-4-6.3-9.8-6.3-17.4V2741.6z"/>
		<path id="XMLID_252_" class="st7" d="M881.8,2800.6c0-5.2,0.6-10.5,1.9-15.8c1.2-5.3,2.9-10.7,5.1-16.1s4.7-10.9,7.6-16.5
			c2.9-5.6,6.1-11.3,9.5-17.1l22.4,9c-1.2,2-2.9,5-5,9c-2.1,4.1-4.2,8.7-6.3,14c-2.1,5.2-3.9,10.8-5.5,16.8
			c-1.5,5.9-2.3,11.7-2.3,17.2c0,8.4,1.8,17,5.3,25.6c3.6,8.6,7.9,17.8,13,27.5l-21.3,10.3c-3.2-4.7-6.3-9.7-9.2-14.9
			c-2.9-5.2-5.5-10.5-7.8-15.9c-2.3-5.4-4.1-10.9-5.4-16.4C882.4,2811.7,881.8,2806.2,881.8,2800.6z"/>
		<path id="XMLID_250_" class="st7" d="M979.5,2800.6c0,5.6-0.7,11.1-2,16.7c-1.3,5.6-3.1,11-5.4,16.4c-2.3,5.4-4.9,10.7-7.8,15.9
			c-2.9,5.2-6,10.2-9.2,14.9l-21.3-10.3c5.1-9.7,9.5-18.8,13-27.5c3.6-8.6,5.3-17.2,5.3-25.6c0-5.6-0.8-11.3-2.3-17.2
			c-1.5-5.9-3.4-11.5-5.5-16.8c-2.1-5.3-4.2-9.9-6.3-14c-2.1-4.1-3.8-7.1-5-9l22.4-9c3.4,5.8,6.6,11.5,9.5,17.1
			c2.9,5.6,5.5,11.1,7.6,16.5c2.2,5.4,3.9,10.8,5.1,16.1C978.9,2790.1,979.5,2795.4,979.5,2800.6z"/>
	</g>
</g>
</svg>
